<svg version="1.1" xmlns="http://www.w3.org/2000/svg" viewBox="0 0 205 208">
  <!-- svg-source:excalidraw -->
  <defs>
    <style>
      @font-face {
        font-family: "Virgil";
        src: url("https://excalidraw.com/FG_Virgil.woff2");
      }
      @font-face {
        font-family: "Cascadia";
        src: url("https://excalidraw.com/Cascadia.woff2");
      }
    </style>
  </defs>
  <g transform="translate(10 10) rotate(0 92.5 94)"><path d="M83.06884168450327 -0.9175688066218441 C94.38242772473819 -3.5911818733706604, 108.0663372819166 -0.45642128412907335, 119.83376535177422 3.4026967440118625 C131.60119342163182 7.261814772152798, 144.5994284591935 14.22715975999377, 153.67341010364896 22.237139362223772 C162.74739174810443 30.247118964453776, 169.3224865594055 40.53099692566739, 174.277655218507 51.46257435739187 C179.2328238776085 62.39415178911636, 182.2841963663217 75.02760124124809, 183.40442205825792 87.8266039525707 C184.52464775019413 100.6256066638933, 185.07527106675494 116.66903846318895, 180.99900937012427 128.25659062532745 C176.9227476734936 139.84414278746593, 168.04364815114815 148.91189362902114, 158.94685187847392 157.35191692540164 C149.8500556057997 165.79194022178214, 137.77097017776651 173.91754801327116, 126.41823173407892 178.8967304036105 C115.06549329039132 183.87591279394982, 102.81420923226463 187.32484936146656, 90.83042121634837 187.2270112674376 C78.84663320043211 187.12917317340865, 65.78217231325311 183.4410571688351, 54.515503638581315 178.30970183943674 C43.24883496390952 173.17834651003838, 31.20439472807537 165.40436537513565, 23.230409168317607 156.43887929104747 C15.256423608559842 147.4733932069593, 10.683991753605365 136.26399194669403, 6.671590280034735 124.5167853349077 C2.659188806464104 112.76957872312136, -1.1658601511117368 98.3253734944441, -0.8439996731061825 85.95563962032946 C-0.5221391951006282 73.58590574621483, 2.812001786289539 60.84055448519126, 8.60275314806806 50.298382090219924 C14.393504509846583 39.756209695248586, 24.220577098806693 30.176604946703485, 33.90050849756495 22.702605250501435 C43.580439896323206 15.228605554299385, 51.887663442504774 8.615048384232864, 66.6823415406176 5.454383913007618 C81.47701963873043 2.293719441782372, 107.656582950129 -0.19357448776477293, 122.6685770862419 3.7386184231499584 C137.68057122235479 7.670811334064689, 157.31334587745778 27.616787301137727, 156.75430635729492 29.047541378496007 M22.18807886782197 35.0738560854824 C27.738297755387038 25.323576679301524, 34.97664346716399 19.824544114374483, 45.721334076977946 14.227826422395637 C56.466024686791904 8.631108730416791, 73.63803289389448 2.689731254045377, 86.65622252670573 1.49354993360933 C99.67441215951699 0.29736861317328334, 112.42936319665809 3.3850380785538356, 123.83047187384553 7.0507384997793565 C135.23158055103295 10.716438921004878, 146.05046838785398 15.967533298807936, 155.06287458983036 23.487752460962454 C164.07528079180673 31.007971623116973, 173.37152560942923 40.417591436868115, 177.90490908570385 52.17205347270647 C182.43829256197847 63.92651550854483, 182.12240961007925 81.28598808839065, 182.26317544747806 94.01452467599259 C182.40394128487688 106.74306126359453, 183.34998720879707 117.68706856676184, 178.74950411009672 128.54327299831812 C174.14902101139637 139.3994774298744, 163.52730501741044 150.51605727785048, 154.66027685527604 159.15175126533023 C145.79324869314163 167.78744525281, 136.25573802286345 175.7318001115896, 125.54733513729029 180.35743692319664 C114.83893225171711 184.9830737348037, 102.56795007390859 187.53549645597832, 90.409859541837 186.9055721349726 C78.2517690097654 186.27564781396688, 63.905012629624046 181.29304255773025, 52.598791944860686 176.5778909971624 C41.292571260097326 171.86273943659455, 30.894489407162226 167.0906739753547, 22.572535433256846 158.6146627715656 C14.250581459351467 150.13865156777652, 6.088950351269515 137.87375996779343, 2.6670681014284128 125.72182377442792 C-0.7548141484126893 113.5698875810624, 0.8308707610287058 98.18699546866063, 2.041241934210234 85.7030456113725 C3.251613107391762 73.21909575408438, 7.0432354296177735 58.928955102421426, 9.929295140517581 50.81812463069919 C12.81535485141739 42.70729415897695, 17.564465491234724 39.32087914339609, 19.35760019960908 37.03806278103906 C21.150734907983438 34.75524641868203, 19.636411807632445 36.44713091792499, 20.688103390763715 37.121226456557004" style="stroke: none; stroke-width: 0; fill: rgb(107, 64, 38);"></path><path d="M84.15939702668157 -1.1494676738498697 C95.93619247903894 -3.6010697487163106, 109.1953689543965 0.5252062274136362, 120.91432263963142 4.623578572623913 C132.63327632486633 8.721950917834189, 145.62301726058573 15.682619495470462, 154.47311913809108 23.440766397411792 C163.32322101559643 31.198913299353123, 168.79378889609552 39.81739204750968, 174.01493390466354 51.172459984271896 C179.23607891323155 62.527527921034114, 184.92190939461307 78.83577263877545, 185.79998918949923 91.57117401798509 C186.6780689843854 104.30657539719472, 184.1065348408772 116.03823806771399, 179.28341267398048 127.58486825952973 C174.46029050708376 139.13149845134546, 165.5404353056067 152.24711113793902, 156.86125618811897 160.85095516887952 C148.18207707063124 169.45479919982003, 138.31279501818923 174.6733148715253, 127.20833796905416 179.20793244517273 C116.10388091991906 183.74255001882017, 102.47780555938391 187.68604159207888, 90.23451389330845 188.05866061076424 C77.99122222723298 188.4312796294496, 64.45983355293784 186.66504438028124, 53.74858797260138 181.44364655728486 C43.03734239226492 176.22224873428848, 34.253436321881296 166.1563928797322, 25.967040411289688 156.73027367278598 C17.68064450069808 147.30415446583976, 8.576825204585578 136.27879317648888, 4.030212509051722 124.88693131560754 C-0.5164001864821346 113.49506945472619, -2.5216525376720726 100.72917530547605, -1.3126357619134552 88.3791025074979 C-0.10361898615483756 76.02902970951976, 5.209254126653644 61.802000621326265, 11.284313163603429 50.78649452773865 C17.359372200553214 39.77098843415103, 25.46566458587091 29.889180670918538, 35.137718459785255 22.286065945972197 C44.8097723336996 14.682951221025856, 56.17851671435016 8.658556594257446, 69.31663640708948 5.1678061780606015 C82.4547560998288 1.6770557618637576, 102.0714479862613 -0.6025039556473974, 113.96643661622117 1.3415634487911348 C125.86142524618104 3.2856308532296667, 140.72397569296754 14.879599499059088, 140.68656818684866 16.832210604691795 M43.247650988277606 11.37350691157981 C53.134097750392954 4.173396122174665, 70.48679818697549 2.1495390560049827, 83.07503884316523 0.9988310529219007 C95.66327949935497 -0.1518769501611814, 107.1228011242106 0.5712197478355514, 118.77709492541601 4.469258893081317 C130.43138872662144 8.367298038327084, 143.33300441293716 16.23952909884671, 153.00080165039773 24.387065924396495 C162.6685988878583 32.53460274994628, 171.25132229672496 42.63510286958631, 176.78387835017952 53.35447984638002 C182.31643440363408 64.07385682317374, 185.54003460957438 77.00496825744098, 186.1961379711251 88.70332778515876 C186.85224133267582 100.40168731287655, 184.87483511765322 112.32735870515981, 180.7204985194839 123.54463701268669 C176.56616192131457 134.76191532021357, 170.09056375519384 146.51418292259095, 161.2701183821091 156.0069976303201 C152.44967300902437 165.49981233804922, 138.92269444921988 174.69487528396348, 127.79782628097556 180.5015252590616 C116.67295811273125 186.3081752341597, 106.34597513682972 190.4120024143624, 94.52090937264327 190.8468974809088 C82.69584360845683 191.2817925474552, 68.57771234521807 188.57347905645406, 56.84743169585684 183.1108956583401 C45.11715104649561 177.64831226022613, 32.868214909657816 167.0461797421223, 24.139225476475872 158.07139709222506 C15.41023604329393 149.09661444232782, 8.235832483170062 140.83456945280656, 4.473495096765191 129.2621997589567 C0.7111577103603204 117.68983006510688, 0.3131148965759962 101.85606292941004, 1.5652011580466478 88.63717892912601 C2.8172874195172994 75.41829492884197, 6.4523866844199524 61.39098755035296, 11.9860126655891 49.948895757252494 C17.51963864675825 38.50680396415203, 29.620105240669773 25.82098893252173, 34.76695704506154 19.984628170523223 C39.913808849453304 14.148267408524717, 41.107197239820266 16.213733007779247, 42.867123491939694 14.930731185261465 C44.62704974405912 13.647729362743682, 43.73278760788562 11.751563170882491, 45.32651455777812 12.286617235416529" style="stroke: rgb(0, 0, 0); stroke-width: 4; fill: none;"></path></g><g transform="translate(60 48) rotate(0 11 11.5)"><path d="M3.9569408981344605 4.5111723638379075 C5.745748736209831 2.4612655771222642, 7.491524608118157 -1.816168626316961, 10.116017912836343 -1.9348958521218513 C12.740511217554529 -2.053623077926742, 17.638782643011293 1.7399718097374683, 19.703900726443578 3.798809009008565 C21.769018809875863 5.857646208279661, 22.085172769549505 8.146103682664208, 22.506726413430044 10.418127343504727 C22.928280057310584 12.690151004345246, 23.50144103320036 15.31707024189224, 22.233222589726815 17.430950974051676 C20.965004146253268 19.544831706211113, 17.586164297561734 22.563730367930546, 14.897415752588765 23.10141173646134 C12.208667207615797 23.639093104992135, 8.03106008162988 21.515592915546147, 6.100731319889007 20.657039185236442 C4.170402558148135 19.798485454926738, 4.375780028404041 20.054654895310275, 3.3154431821435324 17.950089354603108 C2.255106335883024 15.845523813895943, -1.5185204448804663 11.083587571128476, -0.2612897576740423 8.029645940993447 C0.9959409295323818 4.9757043108584185, 7.691929494190735 0.06496454979955163, 10.858827305382077 -0.3735604262070673 C14.025725116573419 -0.8120854022136863, 18.68853381073113 5.164395492112497, 18.740097109474007 5.398496084953734 M1.464863456043977 6.207421633884355 C3.2879182953005808 4.133273633857016, 9.323239583290237 1.0679864113522075, 11.710105147565024 0.752813235859989 C14.09697071183981 0.43764006036777064, 14.22711739925864 2.7907067536052317, 15.786056841692702 4.3163825809310445 C17.344996284126765 5.842058408256857, 20.319669654544654 7.850048726603008, 21.063741802169393 9.906868199814864 C21.80781394979413 11.96368767302672, 21.414738900901476 14.72667361288939, 20.250489727441142 16.65729942020218 C19.086240553980808 18.587925227514965, 15.969665332520366 20.419392025694552, 14.078246761407389 21.490623043691592 C12.186828190294412 22.56185406168863, 11.035169659298806 23.444104126684117, 8.90197830076328 23.084685528184423 C6.768786942227756 22.72526692968473, 3.0831533040024635 21.557887896998732, 1.2790986101942359 19.33411145269342 C-0.5249560836139917 17.11033500838811, -1.8560765398220072 12.51849317689843, -1.9223498620860848 9.742026862352555 C-1.9886231843501625 6.96556054780668, 0.12083071419342295 4.06533232981801, 0.8814586766097703 2.67531356541817 C1.6420866390261177 1.28529480101833, 1.7532925201017333 1.58916098271717, 2.641417912411999 1.401914275953514" style="stroke: none; stroke-width: 0; fill: rgb(0, 0, 0);"></path><path d="M6.8934530919112165 2.2752086931633997 C8.37641060293716 1.293347727572867, 11.124428076810963 1.4661336129506997, 13.143286440621718 1.6927934180608837 C15.162144804432474 1.9194532231710677, 17.336584932320278 1.8601655560469588, 19.00660327477575 3.635167523824504 C20.67662161723122 5.410169491602049, 23.53298591888682 9.362228851032269, 23.163396495354544 12.342805224726154 C22.79380707182227 15.32338159842004, 19.08345276451919 19.82365740298935, 16.789066733582093 21.51862576598782 C14.494680702644995 23.21359412898629, 11.267643609018226 22.708621256137295, 9.397080309731962 22.512615402716975 C7.526517010445699 22.316609549296654, 6.980112896732607 21.954773087849244, 5.565686937864512 20.34259064546589 C4.151260978996416 18.730408203082536, 1.5018396361316637 15.46070987665937, 0.9105245565233862 12.839520748416847 C0.3192094769151086 10.218331620174324, 0.33454689726366005 6.877568889925026, 2.0177964602148464 4.615455876010745 C3.7010460231660325 2.3533428620964627, 8.698402977235855 -0.08122477245850745, 11.010021934230505 -0.7331573350688441 C13.321640891225154 -1.3850898976791806, 16.119956027228373 0.5629155349440212, 15.887510202182746 0.7038605003487248 M5.48098345178492 2.7315915821433094 C6.960937155621544 0.12072392754651107, 6.177979139476599 -2.4852363245702, 7.761880013927102 -2.6988429515672046 C9.345780888377604 -2.912449578564209, 12.846434809283553 -0.4194482784891509, 14.984388698487937 1.4499518201612815 C17.122342587692323 3.319351918811714, 20.015229364281623 6.254849820205649, 20.589603349153407 8.51755764033539 C21.16397733402519 10.780265460465131, 19.627679739344668 12.381859475444179, 18.43063260771863 15.026198740939726 C17.23358547609259 17.670538006435272, 15.312307585725316 23.414553233192155, 13.40732055939717 24.383593233308673 C11.502333533069026 25.35263323342519, 9.267246660399202 22.42044081800151, 7.000710449749753 20.840438741638827 C4.734174239100303 19.260436665276146, 1.0336890424905882 16.76688649369399, -0.19189670449952523 14.90358077513258 C-1.4174824514896387 13.040275056571172, -1.3846894546998219 11.814376703338471, -0.35280403219092804 9.660604430270375 C0.6790813903179658 7.506832157202279, 4.8406379594815565 2.8807058825756253, 5.999415830553838 1.9809471367239997 C7.15819370162612 1.081188390872374, 7.169223891649312 3.466932974675819, 6.5998631942427615 4.262051955160622" style="stroke: rgb(0, 0, 0); stroke-width: 1; fill: none;"></path></g><g transform="translate(127 66.5) rotate(0 11 11.5)"><path d="M7.784175834654258 2.3807807604034874 C10.13987895867106 1.6971924806942504, 13.977356274295992 0.6870265986063636, 16.324641481077244 1.4160615666630942 C18.671926687858495 2.145096534719825, 21.22382246681453 4.653699282094527, 21.86788707534177 6.754990568743871 C22.51195168386901 8.856281855393215, 20.73456540872002 11.587384058703988, 20.189029132240687 14.023809286559157 C19.643492855761355 16.460234514414328, 20.339710162633914 20.098463909306172, 18.59466941646578 21.37354193587489 C16.849628670297648 22.648619962443608, 12.11661650687829 22.151217065577924, 9.718784655231888 21.674277445971455 C7.320952803585486 21.197337826364986, 6.048248330914258 19.909790659600233, 4.207678306587376 18.511904218236065 C2.367108282260495 17.114017776871897, -0.5653769780431221 15.183046082623896, -1.324635490729401 13.286958797786454 C-2.0838940034156797 11.390871512949012, -2.57247751300229 9.145741666597448, -0.3478727695302961 7.135380509211409 C1.8767319739416979 5.125019351825369, 9.648457463235063 2.185850064419442, 12.022992970102562 1.2247918534702116 C14.397528476970061 0.2637336425209812, 13.937470029293493 1.1444134610133656, 13.899340271674696 1.3690312435160266 M6.798322121986503 -2.4587123669486495 C9.828411278196876 -2.6499184377299465, 16.245161092950177 2.01847119457282, 18.234799048320408 3.9060881483760674 C20.22443700369064 5.793705102179315, 18.23480032706038 7.035878221975514, 18.736149854207884 8.866989355870837 C19.237499381355388 10.69810048976616, 21.483432859029353 12.870321852544318, 21.242896211205423 14.892754951748007 C21.002359563381493 16.915188050951695, 19.00625442736809 20.03008835294221, 17.292929967264303 21.001587951092965 C15.579605507160514 21.97308754924372, 13.22621296261578 21.258578425748343, 10.962949450582684 20.721752540652535 C8.699685938549589 20.184926655556726, 5.11382842276209 19.42611211723728, 3.713348895065729 17.78063264051812 C2.312869367369368 16.13515316379896, 2.4603198102037926 12.627580082862265, 2.560072284404516 10.848875680337583 C2.659824758605239 9.070171277812902, 2.9750846526165313 9.089315762728509, 4.311863740270068 7.108406225370032 C5.648642827923605 5.127496688011557, 10.222203950831007 0.08510531466395399, 10.580746810325735 -1.0365815438132717 C10.939289669820463 -2.1582684022904974, 6.8625018667957445 -0.21569780415563822, 6.463120897238434 0.37828507450667814" style="stroke: none; stroke-width: 0; fill: rgb(0, 0, 0);"></path><path d="M9.067961247547908 -0.8037775859075449 C11.040928050377524 -1.2276736068969825, 13.943258048977155 0.6884526450493558, 16.03156848261634 1.9771468199588842 C18.119878916255526 3.2658409948684124, 20.56043792636481 4.935576594281353, 21.59782384938302 6.928387463549626 C22.63520977240123 8.921198332817898, 23.15608313499532 11.793204514798328, 22.255884020725592 13.934012035568522 C21.355684906455863 16.074819556338714, 18.432441303321866 18.37182786523894, 16.19662916376466 19.773232588170785 C13.960817024207453 21.17463731110263, 11.32328383039345 22.222410599771106, 8.841011183382355 22.342440373159576 C6.358738536371259 22.462470146548046, 3.0644396557175355 22.07356456730905, 1.3029932816980825 20.4934112285016 C-0.45845309232137077 18.91325788969415, -2.189488536193809 15.688690370816168, -1.7276670607343654 12.861520340314884 C-1.2658455852749217 10.0343503098136, 1.3344068925901258 5.675854956736929, 4.073922134454744 3.5303910454938965 C6.813437376319362 1.384927134250864, 11.937126844131823 -0.43214376288684564, 14.709424390453343 -0.01126312714331057 C17.48172193677486 0.4096175086002245, 20.283357157633912 5.69226091345874, 20.70770741238386 6.055674859955107 M12.798629320804093 -0.29467519068264636 C14.375416005199376 -0.37070674196098946, 14.922037902982506 0.744754980577756, 16.35985551817889 2.4776526138265815 C17.797673133375273 4.210550247075407, 20.51906194369003 7.376020663882413, 21.425535011982397 10.102710608810307 C22.332008080274765 12.829400553738202, 22.51903663313395 16.320347537832593, 21.7986939279331 18.83779228339395 C21.078351222732252 21.355237028955305, 20.031103707186652 24.35597741461472, 17.103478780777305 25.207379082178434 C14.175853854367956 26.058780749742148, 6.445760306354371 25.256912875962843, 4.232944369477011 23.946202288776238 C2.02012843259965 22.635491701589633, 4.1365740050492965 19.421825442393207, 3.8265831595131417 17.34311555905881 C3.5165923139769872 15.264405675724412, 2.559341591751832 13.475907532731203, 2.372999296260083 11.473942988769858 C2.1866570007683346 9.471978444808514, 1.5211385538815898 7.681032771669123, 2.7085293865626507 5.3313282952907475 C3.8959202192437115 2.981623818912372, 8.48669162835586 -2.0304745492000733, 9.49734429234645 -2.6242838695003954 C10.507996956337038 -3.2180931898007175, 8.735194106146695 1.2888468144380532, 8.772445370506185 1.768472373488816" style="stroke: rgb(0, 0, 0); stroke-width: 1; fill: none;"></path></g><g transform="translate(90 122.5) rotate(0 14 13.5)"><path d="M5.49967318506873 2.970562881608714 C7.318363388598833 1.190980197265917, 11.524366592279888 0.34000471998561377, 14.190620021109545 0.40087301315848123 C16.856873449939204 0.4617413063313487, 19.462597446810467 1.2662781729146038, 21.497193758046677 3.335772640645919 C23.531790069282888 5.405267108377235, 25.848278858376236 9.719959917273822, 26.39819788852681 12.817839819546373 C26.948116918677382 15.915719721818924, 25.851785728299486 19.390672550934504, 24.796707938950114 21.92305205428123 C23.74163014960074 24.455431557627954, 22.834960315804526 27.46238542467467, 20.067731152430568 28.012116839626728 C17.30050198905661 28.561848254578784, 11.261961715636962 26.51310348944199, 8.193332958706364 25.221440543993573 C5.124704201775765 23.929777598545158, 2.881225328767612 22.645834357508978, 1.6559586108469802 20.262139166936244 C0.43069189292634835 17.87844397636351, -2.8272442214843854 13.78788532309247, 0.8417326511825731 10.91926940055716 C4.510709523849531 8.050653478021852, 19.435557639736537 1.5943420154212775, 23.669819846848732 3.0504436317243933 C27.904082053960927 4.506545248027509, 26.74809862867904 19.716592026904706, 26.247305893855746 19.655879098375856 M22.073044027187397 -1.101384542924018 C24.502426287863756 0.6333399116037812, 26.035518748360055 7.48126852458477, 27.306230760826182 10.135111494977451 C28.57694277329231 12.788954465370132, 30.565783722688277 12.812229122590333, 29.69731610198415 14.821673279432067 C28.828848481280023 16.8311174362738, 25.2993283601583 20.61537468822773, 22.095425036601412 22.191776436027855 C18.891521713044526 23.76817818382798, 13.420781658669101 24.014717089937772, 10.473896160642822 24.28008376623282 C7.527010662616542 24.54545044252787, 6.024541561363501 25.70344916370191, 4.414112048443737 23.783976493798143 C2.803682535523974 21.864503823894374, 0.920515863039372 16.065986879551044, 0.8113190831242427 12.763247746810197 C0.7021223032091134 9.460508614069349, 2.3134347728123643 5.890880515412242, 3.758931368952961 3.967541697353054 C5.204427965093558 2.0442028792938665, 6.324632798087709 1.925904669127776, 9.484298659967825 1.2232148384550712 C12.643964521847941 0.5205250077823665, 21.037789825011167 0.15669354494079207, 22.716926540233658 -0.24859728668317338 C24.39606325545615 -0.6538881183071388, 19.863275493421796 -1.9099125392155956, 19.55911895130278 -1.2085301512887217" style="stroke: none; stroke-width: 0; fill: rgb(0, 0, 0);"></path><path d="M13.012030050877858 1.765363172831714 C16.071719294962623 0.7360202940159606, 20.730784489142195 -1.4229147375825884, 23.299504859379716 0.10007220290571617 C25.868225229617238 1.6230591433940207, 27.787421542085262 7.589013530990828, 28.42435227230299 10.903284815761541 C29.061283002520717 14.217556100532255, 28.193430512565367 17.713745119368607, 27.121089240686075 19.98569991153 C26.048747968806783 22.25765470369139, 24.355428730264386 23.59318620165915, 21.990304641027244 24.535013568729894 C19.625180551790102 25.476840935800638, 16.389068252589258 26.34592151350826, 12.930344705263213 25.636664113954453 C9.47162115793717 24.927406714400647, 3.220902688918775 22.528638126480022, 1.2379633570709796 20.279469171407065 C-0.7449759747768161 18.03030021633411, 0.742994543669248 14.68432663591015, 1.0327087141764384 12.14165038351671 C1.3224228846836288 9.59897413112327, 0.44446096599153995 7.108697534149458, 2.9762483801141215 5.023411657046433 C5.508035794236703 2.9381257799434066, 13.144712198072604 0.19071794001680065, 16.223433198911927 -0.37006487910144514 C19.30215419975125 -0.9308476982196909, 21.249202892078458 1.043805857214918, 21.448574385150057 1.658714742336958 M25.762359422131702 1.7338499887223477 C27.81406561494112 3.384925794201143, 28.676759309147222 10.434364384640586, 28.867929069706165 13.398530680607394 C29.059098830265107 16.3626969765742, 29.176232869226496 17.25680215164915, 26.909377985485353 19.518847764523187 C24.64252310174421 21.780893377397224, 18.922063599927483 26.33719456945106, 15.266799767259318 26.970804357851616 C11.611535934591155 27.60441414625217, 7.399270986318404 25.11756582135859, 4.9777949894763704 23.320506494926512 C2.556318992634336 21.523447168494435, 1.1396073517033256 18.197083922653864, 0.7379437862071114 16.188448399259165 C0.3362802207108973 14.179812875864469, 1.3372780112084628 13.781609252724309, 2.567813596499086 11.268693354558332 C3.7983491817897086 8.755777456392355, 5.830970089759189 2.763664981247625, 8.12115729795085 1.1109530102633087 C10.41134450614251 -0.5417589607210074, 13.279443369327344 0.9802992294446424, 16.30893684564905 1.3524215286524353 C19.33843032197076 1.724543827860228, 25.468362480947388 2.9620695172663702, 26.29811815588109 3.3436868055100657 C27.127873830814796 3.725304093753761, 21.986749974658466 3.8322703939319305, 21.28747089525127 3.642125258114609" style="stroke: rgb(0, 0, 0); stroke-width: 1; fill: none;"></path></g><g transform="translate(48 96.5) rotate(0 9 7.5)"><path d="M4.839634923757172 2.068383973788695 C6.3540129690871625 1.7908778136423609, 7.998947572513477 1.6764058613087378, 9.866275815426807 1.921430559322741 C11.733604058340138 2.1664552573367444, 14.946580945812203 2.3833150774531817, 16.043604381237152 3.5385321618727144 C17.140627816662104 4.693749246292247, 16.473706627650408 7.587973507785405, 16.448416427976504 8.852733065839937 C16.4231262283026 10.117492623894469, 16.975023830738795 10.354641066254596, 15.891863183193731 11.127089510199909 C14.808702535648667 11.899537954145222, 12.08635577667152 12.759045651657981, 9.949452542706116 13.487423729511818 C7.812549308740712 14.215801807365654, 4.403785158155789 15.866493904784134, 3.0704437794013106 15.49735797732293 C1.737102400646832 15.128222049861725, 2.346488335121484 12.714317445365605, 1.9494042701792438 11.272608164744586 C1.552320205237004 9.830898884123567, -0.7966684185074566 8.68503189252445, 0.6879393897478714 6.847102293596814 C2.1725471980031994 5.009172694669179, 8.12018583528299 0.21201555133483163, 10.857051119711212 0.24503057117877258 C13.593916404139433 0.27804559102271353, 16.930006398282707 6.56740077306351, 17.109131096317196 7.04519241266046 M17.10964100654527 3.9240347113150333 C18.969967378070905 5.395201441541236, 20.285823754162962 8.578155597116956, 20.020860180773123 9.407809089314668 C19.755896607383285 10.23746258151238, 16.66981230410835 7.632713694754668, 15.519859566206247 8.901955664501305 C14.36990682830414 10.17119763424794, 14.72118880538064 15.968491795465551, 13.121143753360489 17.023260907794487 C11.521098701340337 18.07803002012342, 7.812687108952564 16.359582279102664, 5.919589254085339 15.23057033847492 C4.026491399218114 14.101558397847175, 2.723490713663958 11.494263280027264, 1.7625566241571367 10.249189264028017 C0.8016225346503153 9.00411524802877, -0.4722943998601906 8.90455646541254, 0.15398471704441086 7.7601262424794335 C0.7802638339490123 6.615696019546327, 3.662868892917894 5.124465613024366, 5.520231325584746 3.382607926429375 C7.377593758251598 1.6407502398343843, 9.731326278590085 -2.646212265368878, 11.298159313045522 -2.691019877090511 C12.864992347500959 -2.735827488812144, 14.72910652163822 1.8800191787309772, 14.921229532317364 3.1137622560995775 C15.113352542996507 4.3475053334681775, 12.503939121326995 4.588523314029128, 12.45089737712038 4.711438587121091" style="stroke: none; stroke-width: 0; fill: rgb(0, 0, 0);"></path><path d="M5.7206965372145895 -1.6461487005781388 C8.059636853058983 -1.761847551035712, 12.82882020848804 1.3461647239506074, 14.483160264261166 2.5904355368670693 C16.13750032003429 3.834706349783531, 15.15219989524103 4.6306456184603695, 15.64673687185335 5.819476176920633 C16.14127384846567 7.008306735380896, 17.693054728084785 8.409878924108527, 17.450382123935086 9.72341888762865 C17.207709519785386 11.036958851148773, 15.619335162107857 13.074377565032163, 14.190701246955152 13.700715958041371 C12.762067331802447 14.32705435105058, 10.743923370118813 13.837260800386161, 8.878578633018858 13.481449245683901 C7.013233895918904 13.125637690981641, 4.192061592840265 12.638329888836909, 2.998632824355427 11.565846629827808 C1.8052040558705897 10.493363370818708, 1.6930015164188126 8.19688413126876, 1.718006022109833 7.046549691629303 C1.7430105278008534 5.8962152519898465, 0.6573224503099935 5.708085937079882, 3.14865985850155 4.663839991991068 C5.639997266693107 3.6195940469022547, 14.394210961771098 0.18223443247707605, 16.666030471259173 0.78107402109642 C18.93784998074725 1.3799136097157638, 17.17825643843002 7.888202188770675, 16.77957691543 8.256877523707132 M8.034004662228464 0.20101450869149406 C9.307744966786466 -0.4250769194021481, 10.313743665046726 -1.861197372528441, 12.148921315358471 -0.7470279661555423 C13.984098965670217 0.3671414402173563, 18.51421276295908 4.734886880920808, 19.045070564098936 6.886030946928885 C19.57592836523879 9.037175012936963, 16.767368658966603 10.872606393718476, 15.334068122197614 12.159836429892923 C13.900767585428625 13.44706646606737, 11.534858451366503 13.78330969147069, 10.445267343485003 14.609411163975574 C9.355676235603504 15.435512636480459, 10.684302284136564 17.472045458028003, 8.796521474908621 17.116445264922234 C6.908740665680679 16.760845071816465, 1.0236301400673524 14.449344302999714, -0.8814175118826473 12.475810005340962 C-2.7864651638326468 10.50227570768221, -2.7544405686927966 6.84995769404441, -2.6337644367913775 5.275239478969727 C-2.5130883048899584 3.7005212638950438, -2.1069181680306013 3.76601700944129, -0.1573607204741334 3.027500714892863 C1.7921967270823347 2.288984420344436, 7.9417841401946925 1.1625477374126152, 9.063580248547431 0.844141711679165 C10.185376356900171 0.5257356859457147, 6.969873515024975 1.3588679688630256, 6.573415929642302 1.117064560492162" style="stroke: rgb(0, 0, 0); stroke-width: 1; fill: none;"></path></g></svg>