<svg version="1.1" xmlns="http://www.w3.org/2000/svg" viewBox="0 0 148 210">
  <!-- svg-source:excalidraw -->
  <defs>
    <style>
      @font-face {
        font-family: "Virgil";
        src: url("https://excalidraw.com/FG_Virgil.woff2");
      }
      @font-face {
        font-family: "Cascadia";
        src: url("https://excalidraw.com/Cascadia.woff2");
      }
    </style>
  </defs>
  <g transform="translate(10 10) rotate(0 64 95)"><path d="M39.68772260677113 7.000506090370564 C47.093742564565076 0.8581200503166508, 57.27491958065458 -0.6296574531563787, 65.99546212220514 0.06096424361142283 C74.7160046637557 0.7515859403792243, 83.85931169259256 5.117941435609997, 92.01097785607446 11.144236270977373 C100.16264401955637 17.17053110634475, 108.87679877595227 25.459270679568576, 114.9054591030966 36.21873325581568 C120.93411943024094 46.97819583206278, 126.51041154970258 62.25568052254951, 128.18293981894053 75.70101172845999 C129.85546808817847 89.14634293437047, 126.83934612469164 104.04159739145234, 124.94062871852427 116.89072049127854 C123.04191131235689 129.73984359110474, 122.22014072706942 142.0945712800296, 116.79063538193626 152.79575032741715 C111.36113003680309 163.4969293748047, 100.59644925881118 174.73340940498406, 92.3635966477253 181.09779477560375 C84.13074403663943 187.46218014622343, 76.37710259399077 190.9016133936731, 67.39351971542101 190.9820625511352 C58.40993683685125 191.06251170859727, 46.93685996215568 186.7690575867861, 38.46209937630676 181.58048972037622 C29.987338790457837 176.39192185396635, 22.198709334572133 169.81090785015783, 16.54495620032747 159.850655352676 C10.891203066082806 149.89040285519417, 7.4707039506036725 134.92132088687788, 4.539580570838787 121.81897473548518 C1.6084571910739016 108.71662858409249, -2.274824542332202 94.57190843989824, -1.0417840782618413 81.23657844431987 C0.19125638580851967 67.90124844874151, 6.820942722908747 53.14217977523239, 11.937823355260953 41.806994762015 C17.05470398761316 30.47180974879761, 22.72139633518499 20.255047531616732, 29.659499715851396 13.22546836501553 C36.5976030965178 6.195889198414327, 46.74097849061153 1.1375878517240376, 53.56644363925939 -0.3704802375922185 C60.39190878790725 -1.8785483269084746, 70.60304162639949 2.5666250960651285, 70.61229060773854 4.177059829117994 M58.16785617524025 2.744597208807974 C65.90963197888253 0.6183836336446711, 76.98109812467315 2.639718261695857, 85.48971455125866 7.238055449687252 C93.99833097784416 11.836392637678646, 102.61680356037792 20.48051361576335, 109.21955473475327 30.334620336756345 C115.82230590912863 40.18872705774934, 122.55932527798149 53.20028158495178, 125.1062215975108 66.36269577564522 C127.6531179170401 79.52510996633866, 126.16820759451875 96.06340208706807, 124.50093265192916 109.30910548091697 C122.83365770933958 122.55480887476587, 119.30367436878079 135.30587438227755, 115.10257194197325 145.83691613873862 C110.90146951516572 156.36795789519968, 106.80220057336915 165.32706984714048, 99.29431809108392 172.4953560196833 C91.7864356087987 179.66364219222612, 79.5191797234531 186.88750553741232, 70.0552770482619 188.8466331739956 C60.59137437307069 190.80576081057887, 50.97776952362863 188.0397320239233, 42.51090203993666 184.25012183918304 C34.04403455624469 180.46051165444277, 25.737233826343406 174.56973716642142, 19.254072146110076 166.10897206555393 C12.770910465876746 157.64820696468644, 6.646974172944823 145.81853564136458, 3.6119319585366725 133.48553123397807 C0.5768897441285219 121.15252682659155, 0.1739917967589122 105.8704495383804, 1.0438188596611724 92.11094562123489 C1.9136459225634326 78.35144170408938, 4.977679264698436 63.213964598196476, 8.830894335950234 50.92850773110501 C12.684109407202032 38.64305086401354, 16.85921909218779 26.080466593258055, 24.163109287171956 18.398204418686092 C31.466999482156123 10.715942244114128, 46.12325075083142 8.134931788271137, 52.654235505855226 4.834934683673225 C59.185220260879035 1.5349375790753137, 61.711683898667275 -1.4178898109860896, 63.349017817314824 -1.4017782089013764 C64.98635173596237 -1.3856666068166632, 63.05648155853111 3.1966101679147014, 62.478239017740535 4.931604296181504" style="stroke: none; stroke-width: 0; fill: rgb(240, 234, 214);"></path><path d="M50.63293654287595 3.6593895330248642 C58.440318232219155 -0.10652341850553881, 69.23926462941019 -0.5159275902530731, 78.3036845643332 2.4310842091700806 C87.3681044992562 5.378096008593234, 97.66076242423304 12.625380290117239, 105.019456152414 21.341460329563787 C112.37814988059495 30.057540369010336, 118.78981802041194 42.6585998783467, 122.4558469334189 54.727564445849374 C126.12187584642585 66.79652901335206, 126.93439849215258 80.6987902732544, 127.01562963045572 93.75524773457984 C127.09686076875886 106.81170519590528, 126.60354165403669 121.07483582332048, 122.94323376323769 133.066309213802 C119.28292587243868 145.0577826042835, 112.03873598532009 156.87367631111616, 105.05378228566167 165.70408807746884 C98.06882858600325 174.53449984382152, 89.65094266225026 182.25080818854929, 81.03351156528716 186.04877981191802 C72.41608046832405 189.84675143528676, 62.04179776413846 190.56194282330648, 53.3491957038831 188.4919178176812 C44.65659364362774 186.42189281205594, 36.365915100565694 181.40441976838557, 28.877899203754986 173.6286297781665 C21.389883306944277 165.85283978794743, 13.185912909662978 153.73681792891682, 8.421100323018848 141.83717787636678 C3.6562877363747193 129.93753782381674, 1.3379093717744333 115.68946768422094, 0.28902368389021404 102.2307894628662 C-0.7598620039940052 88.77211124151145, -1.0100748308917837 73.13299939174243, 2.127786195713533 61.085108548238324 C5.265647222318849 49.037217704734225, 12.372601517372406 39.180507651327915, 19.116189843522115 29.94344440184159 C25.859778169671824 20.706381152355263, 32.84255832352974 10.546656048695894, 42.58931615261179 5.662729051320383 C52.336073981693836 0.7788020539448723, 67.87712719099373 -1.9425281199153823, 77.59673681801442 0.6398824175885238 C87.31634644503511 3.22229295509243, 101.28757416225908 19.60435613464276, 100.90697391473591 21.15719227634382 M99.85038318557059 16.72848577150316 C107.51087736545978 22.48289100823785, 116.80934410296915 33.941163961670995, 121.53966356445753 45.46590642876552 C126.2699830259459 56.99064889586005, 127.79798259416273 72.36549310833085, 128.2322999545009 85.87694057407032 C128.66661731483904 99.38838803980978, 127.23611129564489 113.57766616525033, 124.14556772648643 126.53459122320228 C121.05502415732798 139.49151628115422, 116.44696182110725 154.35421862279568, 109.68903853955017 163.61849092178198 C102.93111525799308 172.88276322076828, 92.43578277402418 177.5836122860233, 83.59802803714395 182.12022501712005 C74.76027330026372 186.6568377482168, 64.73722764522117 191.3703422239061, 56.662510118268756 190.83816730836242 C48.587792591316344 190.30599239281872, 42.91406945092705 185.75813618093025, 35.14972287542949 178.92717552385795 C27.385376299931927 172.09621486678566, 15.848860024278057 160.88879755593845, 10.07643066528339 149.85240336592867 C4.304001306288722 138.81600917591888, 2.0091819775560786 125.51962470808971, 0.515146721461484 112.70881038379916 C-0.9788885346331107 99.89799605950861, -1.1278808441176373 85.94324824339373, 1.1122191287158216 72.98751742018534 C3.3523191015492806 60.03178659697695, 7.663558585577465 45.46637264087809, 13.955746558462238 34.974425444548835 C20.24793453134701 24.48247824821958, 30.50859092289963 15.687055474755898, 38.86534696602446 10.035834242209788 C47.22210300914929 4.384613009663678, 55.011784001066275 0.8481333189743528, 64.09628281721125 1.0670980492721753 C73.18078163335622 1.286062779569998, 87.42427739566052 8.512515674154578, 93.37233986289431 11.349622623996723 C99.32040233012809 14.186729573838868, 98.87487525454023 16.81981374888403, 99.78465762061391 18.089739748325044 C100.6944399866876 19.35966574776606, 99.23212859881195 18.168389228664655, 98.83103405933643 18.969178620642808" style="stroke: rgb(0, 0, 0); stroke-width: 4; fill: none;"></path></g></svg>