<svg version="1.1" xmlns="http://www.w3.org/2000/svg" viewBox="0 0 269 354">
  <!-- svg-source:excalidraw -->
  <defs>
    <style>
      @font-face {
        font-family: "Virgil";
        src: url("https://excalidraw.com/FG_Virgil.woff2");
      }
      @font-face {
        font-family: "Cascadia";
        src: url("https://excalidraw.com/Cascadia.woff2");
      }
    </style>
  </defs>
  <g transform="translate(10 10) rotate(0 124 167)"><path d="M-1.3454857514865994 2.4331075903581736 L245.64437897940977 2.3389918893995403 L249.49059400521583 331.6881825730234 L0.30614081382216213 334.2812720095892" style="stroke: none; stroke-width: 0; fill: rgb(206, 212, 218);"></path><path d="M-0.4257900762935281 -1.644846364893949 C58.18273355155758 1.9777427594994745, 117.31567310327344 3.267685475693246, 245.60317179806827 -3.14564584639076 M-0.1711881482064426 -1.4295644731904804 C83.74342407992027 -0.7625424756578632, 169.80588448293102 -0.14638950169603304, 248.14777567922752 -0.4383080081409276 M250.68446651810476 0.49762183467100857 C247.23725172846136 119.12706585918434, 248.9846246116946 234.14252065399796, 248.10511633616392 336.1061541683025 M247.03208577065678 -0.030179027032750844 C250.07041310587164 94.62720651682112, 249.85249924842552 187.56194815804437, 247.3764289047638 335.1947882528098 M249.3666644648312 332.947156266723 C158.27478362391628 335.0836387832669, 60.918563518584854 339.2755481306863, -2.1956132751868846 335.283699053903 M249.20034501011912 333.6634970607264 C156.11384835176284 331.78460386995, 66.9680782436812 334.1988150683381, -0.7763652222491443 333.87354721155475 M0.4502786504205823 336.27639845192795 C-1.5973536878614825 239.67409738636923, -3.1135377363909162 138.61070706220454, 0.8938019481916546 -2.1688692406368375 M-0.073136560643965 332.8896059551652 C-2.885163827624764 246.34229224015616, -1.4088569783692024 159.30994644321964, 0.638653556068033 -1.195454239980024" style="stroke: rgb(0, 0, 0); stroke-width: 4; fill: none;"></path></g><g transform="translate(14 93) rotate(0 122.5 52)"><path d="M3.456862360239029 2.202991098165512 L241.58329954743385 0.45245417952537537 L245.4156998693943 106.24839553236961 L-3.6992569863796234 105.16601046919823" style="stroke: none; stroke-width: 0; fill: rgb(134, 142, 150);"></path><path d="M-0.39863357189869875 2.4123548779098987 C71.21860574999047 -3.303461730587321, 137.47403141636207 0.5259651477314654, 246.470062419976 0.9355866613037586 M0.3929347794052362 -0.30951932984125613 C71.95536025950278 3.3859816733536303, 141.44404911618724 4.120749088259179, 245.4926479683434 -1.5674240968433617 M246.5419498383999 -0.5393505990505219 C242.38966692209243 41.67072206735611, 248.49517858743667 82.33968755602837, 247.4336801469326 100.1743725836277 M245.291824772954 -1.3263847380876541 C243.03592123448848 22.83976577818394, 246.71942486226558 49.00474136769772, 243.7344255000353 105.45331220328808 M243.1168856934669 102.46342134081578 C163.6256382629962 105.55233593825687, 78.87408691138292 109.89973436296238, 2.50091838211894 103.3139752633698 M243.62176441588747 103.90951130430639 C154.61800623074996 99.73061247900571, 62.00739218001187 100.34697704649915, 0.760861541593194 103.97211424506796 M3.7529464662075043 102.47887030243874 C-4.20109492778778 72.39072833061218, -4.954897227287292 36.66968230605124, 2.129234880208969 -3.7030974328517914 M0.39795060455799103 105.4736326187849 C3.426867486834526 74.30595526993275, -0.06006955921649926 41.729876431822774, 1.7979793101549149 -1.740719512104988" style="stroke: rgb(0, 0, 0); stroke-width: 4; fill: none;"></path></g><g transform="translate(78.5 116) rotate(0 56.5 28.5)"><text x="0" y="41" font-family="Virgil" font-size="36px" fill="#000000">FLOUR</text></g></svg>