<svg version="1.1" xmlns="http://www.w3.org/2000/svg" viewBox="0 0 387.5 343.8670895814896">
  <!-- svg-source:excalidraw -->
  <defs>
    <style>
      @font-face {
        font-family: "Virgil";
        src: url("https://excalidraw.com/FG_Virgil.woff2");
      }
      @font-face {
        font-family: "Cascadia";
        src: url("https://excalidraw.com/Cascadia.woff2");
      }
    </style>
  </defs>
  <g transform="translate(10 10) rotate(0 131 116.5)"><path d="M130.85627055168152 -0.9641997814178467 L263.1123511791229 115.30376744270325 L133.15822672843933 229.76240849494934 L-1.7795403003692627 120.81016087532043" style="stroke: none; stroke-width: 0; fill: rgb(0, 0, 0);"></path><path d="M128.31252598762512 1.941948652267456 C181.3473998916149 43.37984490990639, 223.95120203614238 79.57421212196351, 263.1071503162384 120.25291514396667 M130.27621495723724 -0.8277992010116577 C162.5662999498844 24.793320482969285, 193.19081601977348 55.86558735370637, 261.58562886714935 118.89104616641998 M258.88663029670715 119.53105235099792 C232.8960177397728 143.1278020977974, 204.39635110855102 175.24069327116013, 128.23130345344543 234.24900126457214 M261.723720908165 116.73195803165436 C217.46862442731856 157.18168407678604, 168.4104974412918 199.2194608569145, 132.1780322790146 234.7961403131485 M129.32133030891418 234.9353415966034 C81.50921021461488 190.01527514457703, 32.20780633449556 142.37560250759125, 2.848864793777466 114.55246043205261 M132.3639758825302 234.47982561588287 C96.79277062892913 197.44548731327058, 59.08897622108459 166.7919276046753, 0.3342784643173218 116.95575106143951 M1.9369385242462158 118.95950388908386 C43.807680076360704 82.35205816388131, 81.03188287615777 44.99803194761276, 134.5301468372345 -3.282019853591919 M0.7243236303329468 116.82595980167389 C29.484456883668898 87.7002140557766, 63.60232828736305 60.35603117704392, 133.95671117305756 0.4050346612930298" style="stroke: rgb(0, 0, 0); stroke-width: 1; fill: none;"></path></g><g transform="translate(15 126) rotate(0 127 101)"><path d="M2.18109455867033 -3.4868880244982714 L255.76405744391508 0.6713680248761176 L253.4353111950778 201.77485760052005 L-0.5671172972165107 199.3190772618085" style="stroke: none; stroke-width: 0; fill: rgb(250, 82, 82);"></path><path d="M0.07094999603128434 -2.9522391738739966 C81.7119689705926 0.9770072179626719, 161.10916634368908 4.840941626559474, 251.03135603532877 -0.08656264495859146 M1.3099735264983654 1.2439552025963305 C83.01463869298777 2.2581851593024016, 167.24441886255335 3.450947662499118, 253.89972154022365 -0.17993506437602041 M254.79251216583376 1.0887313613955496 C249.26234732630184 65.36694522376965, 253.76669431132078 129.05739554268672, 257.45480328026554 200.86786489701262 M255.43307414600693 -1.6780389000634668 C255.8729822859905 74.56189768134446, 257.31644048120074 151.58781750401215, 253.1402182769502 203.1672818638907 M256.29837105514383 200.6568060479705 C162.82480281949242 198.86071146068906, 75.21973671362618 202.57950045151242, 2.9657198758866308 203.49202972356557 M255.01127231486203 202.0468083042229 C182.8677187293815 206.44641801772735, 107.87692223135215 203.5701651782483, 0.40208856755213734 201.17284910922322 M1.5862802640820501 200.24446750465117 C2.5817660446143975 133.9220570618388, 1.285532629438006 64.98043216931943, 0.7447563779278754 -1.5583594435208319 M1.2063897821855067 200.64047667659975 C-2.1302230087375724 135.07841691551346, -4.46574509311715 70.98182569881193, -1.439562025640726 0.5324602965109347" style="stroke: rgb(0, 0, 0); stroke-width: 4; fill: none;"></path></g><g transform="translate(113 238) rotate(0 27 44.5)"><path d="M-3.4114067554473877 -0.01549220085144043 C9.480313813686372 1.7411135601997374, 25.060266804695132 -0.19795046567916885, 51.89199137687683 -3.684246778488159 M-0.8201278448104858 -0.3911968469619751 C13.664070355892182 1.0220801663398742, 27.60298047065735 1.3534896206855773, 52.814611077308655 0.09131276607513428 M50.03536295890808 -0.9946105480194092 C51.20779087424278 25.77821510434151, 51.50708439230919 50.60108958482743, 53.6598060131073 91.49605870246887 M52.23853075504303 0.11807668209075928 C54.898322554826734 23.19841179251671, 54.36043116688728 51.67364436388016, 53.69907534122467 87.06579625606537 M50.64888072013855 87.12124180793762 C41.52540432214737 87.76500332593918, 30.824535346031183 89.80982601881027, 0.33655619621276855 86.9041473865509 M54.747018456459045 88.327911734581 C40.64437009096146 90.18210527181625, 23.754246139526366 89.94735261678696, -0.025225043296813965 87.3619350194931 M-3.5161659717559814 88.15237736701965 C-4.703734191656113 54.94417535662651, -4.364889892339707 28.301647174358365, 0.7269294261932373 1.6103317737579346 M1.990491509437561 88.01565206050873 C1.1902397334575654 70.39804163575172, 0.7692917048931123 52.29251617193222, -0.44813382625579834 0.1320728063583374" style="stroke: rgb(0, 0, 0); stroke-width: 4; fill: none;"></path></g><g transform="translate(39 156) rotate(0 23.5 21.5)"><path d="M-1.1742980480194092 3.4589240550994873 L44.723063707351685 2.0082175731658936 L49.67047429084778 45.4644935131073 L3.566371202468872 43.304314374923706" style="stroke: none; stroke-width: 0; fill: rgb(250, 82, 82);"></path><path d="M-1.8272011280059814 -0.8256499767303467 C16.159150856733323 3.7270284712314607, 28.060297763347627 -3.1229242265224455, 46.77526926994324 0.02292943000793457 M-1.756334662437439 -0.030490517616271973 C17.61338034272194 -2.0230273830890653, 33.26202601194382 1.1212482821941376, 46.7503525018692 1.2656177282333374 M50.01825022697449 -2.0432937145233154 C47.55563628315926 17.18927740454674, 51.363474723100666 31.620334851741795, 48.918328046798706 42.613147020339966 M48.26509249210358 -0.7203136682510376 C48.0669946706295 10.386585599184036, 45.261158946752545 20.87666357755661, 48.54680407047272 44.77928578853607 M45.944512128829956 45.544970750808716 C33.40801098942757 46.031980336904525, 19.020679771900177 40.18153935790062, 1.1343848705291748 40.892085313797 M48.71681749820709 43.4974559545517 C32.59741796851158 41.15752127766609, 18.26476160287857 43.602822333574295, -1.410040259361267 42.946640372276306 M-1.7437279224395752 39.50945591926575 C4.434586933851242 27.639633899927137, 2.5163511550426483 18.983923208713527, -3.5218727588653564 3.6800568103790283 M1.758996605873108 43.52516210079193 C-1.0712599885463714 31.94469067454338, 2.7476601469516755 18.11458545923233, 1.6649757623672485 -1.9549747705459595" style="stroke: rgb(0, 0, 0); stroke-width: 4; fill: none;"></path></g><g transform="translate(186.5 155.5) rotate(0 23.5 21.5)"><path d="M2.897326707839966 0.8575141429901123 L48.06519627571106 2.0894248485565186 L49.62686467170715 44.384567975997925 L2.480769395828247 40.21950602531433" style="stroke: none; stroke-width: 0; fill: rgb(250, 82, 82);"></path><path d="M2.0313498973846436 -0.7091033458709717 C20.897661751508714 -3.4108299577236174, 36.835018527507785 2.9159751570224763, 48.99417185783386 -3.3302505016326904 M0.6032081842422485 1.4622615575790405 C11.964337831735612 -1.4010826504230498, 21.776273143291476 -0.7279983913898467, 48.95315706729889 0.8447955846786499 M44.07309031486511 3.1425888538360596 C46.76171523213387 12.75218099951744, 44.40842085957527 19.90400947332382, 43.48976969718933 40.67305302619934 M47.612428307533264 -1.473167061805725 C48.30749836325646 17.595810300111772, 46.840041545629504 35.12609137296677, 46.409276604652405 44.190983176231384 M50.10189127922058 46.39393925666809 C25.161943942308426 44.993801168203355, 11.52741652727127 46.88261800169945, 0.9646155834197998 45.95882725715637 M48.84882128238678 43.45212209224701 C31.463641875982283 45.0973990547657, 17.037080633640286 45.290258704423906, -0.5910247564315796 41.64398229122162 M1.4224402904510498 41.61526036262512 C-2.3226223862171174 31.229891926050186, 0.03550902247428894 16.40238481760025, -0.5266029834747314 -3.6526153087615967 M1.9725433588027954 43.640472769737244 C0.9018434965610505 31.76086270213127, -0.6596074616909027 25.7097438454628, 0.23740923404693604 -0.018863320350646973" style="stroke: rgb(0, 0, 0); stroke-width: 4; fill: none;"></path></g><g><g transform="translate(187 176) rotate(0 23.450286724567434 0.7304815936088573)"><path d="M1.3549757719039919 -1.9645144224166868 C9.621729159355166 -0.6784154335657755, 39.473358035087585 4.232378379503886, 47.32431552410126 5.034663891792297 M-0.4237420749664307 -3.573700704574585 C7.09334298769633 -3.367307577133179, 38.68396808942159 -0.6496888637542728, 46.13328948020935 0.21649918556213343" style="stroke: rgb(0, 0, 0); stroke-width: 4; fill: none;"></path></g></g><g><g transform="translate(210 153) rotate(0 -1.0947287106513954 26.78730299949646)"><path d="M1.5028599977493284 2.154951357841491 C1.9378766298294063 10.276131828625996, 1.7878224611282343 42.74468778769175, 1.6569943666458125 50.97507236003876 M-3.981576375961304 2.12675597190857 C-4.063103170394897 10.766861867904662, -0.6541856288909909 43.50550780296326, 0.15751999855041543 51.44785002708435" style="stroke: rgb(0, 0, 0); stroke-width: 4; fill: none;"></path></g></g><g><g transform="translate(60 156) rotate(0 1.8421811008453233 21.903918905258166)"><path d="M2.7680371522903444 -0.07862179279327375 C3.7504089275995893 7.689344159762065, 3.662944277127584 38.34986789226532, 3.6474400758743286 46.97990252971649 M-1.6446278285980225 -3.509914255142212 C-1.0288662115732827 3.8324344793955487, 4.126558491388956 38.43160450299581, 5.328990030288696 47.31775206565857" style="stroke: rgb(0, 0, 0); stroke-width: 4; fill: none;"></path></g></g><g><g transform="translate(42 181) rotate(0 26.285227670669542 0.39111049175264156)"><path d="M-2.392769885063171 -1.3951218843460083 C6.633132163683575 -0.810660163561503, 44.98646341164907 1.7753437121709188, 54.67152073383331 2.1773428678512574 M-3.6807267665863037 0.5982501125335693 C5.057017272313436 0.3340851751963297, 46.170205647150674 1.8234602769215902, 56.251182107925416 1.8515316677093505" style="stroke: rgb(0, 0, 0); stroke-width: 4; fill: none;"></path></g></g><g transform="translate(145 284) rotate(0 2 2)"><path d="M-1.3231793279638493 -1.2605203180542754 C-0.6616910362611376 -1.2972065396800352, 1.9020598195143195 -0.6109027548571153, 2.5201116423558174 -0.25495782389871047 C3.1381634651973154 0.10098710705969444, 2.0805851905160444 0.8369934153196763, 2.3851316090851395 0.8751492676961541 C2.6896780276542347 0.9133051200726319, 4.020587765529099 -0.3624151980491274, 4.347390153770389 -0.026022709639843433 C4.67419254201168 0.31036977876944055, 4.34323973220045 2.2670414031731, 4.345945938532884 2.893504198151858 C4.3486521448653175 3.519966993130616, 5.0194006538404095 3.358852659869085, 4.3636273917649895 3.732754060232706 C3.707854129689569 4.106655460596327, 0.7513137149174701 5.339645894405964, 0.4113063660803621 5.136912600333584 C0.07129901724325405 4.934179306261204, 2.148553516636976 3.3586570921294707, 2.3235832987423413 2.5163542957984273 C2.4986130808477065 1.6740514994673839, 1.273901976374811 0.8176534349731901, 1.461485058712554 0.0830958223473239 C1.6490681410502972 -0.6514617902785422, 3.0183874387218466 -1.8221962361366524, 3.4490817927688 -1.8909913799567701 C3.8797761468157534 -1.959786523776888, 4.432063783907869 -0.6156531758767132, 4.045651182994275 -0.32967504057338193 M5.461253725686554 0.1664208479066911 C5.543604619248044 0.2570582584543859, 2.8599239172089046 -0.9055080805304664, 2.1853047821212113 -0.8525889478002171 C1.510685647033518 -0.7996698150699678, 1.50087204179388 -0.6163010472269317, 1.4135389151603948 0.4839356442881868 C1.3262057885269096 1.5841723358033053, 1.5066965813700883 5.623699139623227, 1.661306022320301 5.7488312012904945 C1.8159154632705135 5.873963262957762, 3.0342019869067895 2.175671156712818, 2.34119556086167 1.2347280142917947 C1.6481891348165503 0.2937848718707713, -2.0299005320653007 0.2536462883373414, -2.496732533950416 0.10317234676435405 C-2.9635645358355314 -0.047301594808633246, -1.3751422586969029 -0.06505863403760176, -0.45979645044902306 0.33188436485387085 C0.45554935779885686 0.7288273637453435, 2.491472934213621 2.9713619181909703, 2.9953423155368633 2.4848303401131897 C3.4992116968601055 1.9982987620354091, 2.182031884875149 -2.510484324495877, 2.5634198374904296 -2.587305103612813 C2.94480779010571 -2.664125882729749, 4.6543240981622045 1.9306452414413153, 5.283670031228546 2.0239056654115735 C5.913015964294887 2.1171660893818314, 6.612189721983228 -1.968728009430989, 6.339495435888475 -2.027742559791265" style="stroke: none; stroke-width: 0; fill: rgb(250, 82, 82);"></path><path d="M-0.37681683387159204 1.5499599316583104 C-0.32926008240455207 1.4300309253265173, 0.1470270030624461 2.3051748230699682, 0.4496733341807325 1.8592626172337174 C0.752319665299019 1.4133504113974666, 0.985348390293397 -0.8021878786621806, 1.4390611528381265 -1.125513303359195 C1.892773915382856 -1.4488387280562096, 2.727714033114276 -0.9904891727903702, 3.1719499094491095 -0.08068993094837029 C3.616185785783943 0.8291093108936296, 3.843044626533094 3.70035319138428, 4.104476410847128 4.333282147692804 C4.365908195161162 4.966211104001328, 5.490250069208093 4.067437287140663, 4.7405406153333125 3.716883806902773 C3.9908311614585323 3.366330326664883, 0.2232533860469581 2.0487930039640934, -0.3937803124015532 2.229961266265463 C-1.0108140108500645 2.4111295285668324, 1.158353989211935 4.980850774493811, 1.038338424642245 4.80389338071099 C0.9183228600725548 4.62693598692817, -1.086308138514403 1.758523875462625, -1.1138736998196936 1.168216903568543 C-1.1414392611249842 0.5779099316744613, 0.4258150086519424 1.2792423251230423, 0.8729450568105019 1.2620515493464999 C1.3200751049690616 1.2448607735699575, 1.334345298563791 0.945868817945257, 1.5689065891316638 1.065072248909289 M2.5444653890524274 -0.4597918889067725 C2.982618247286599 -0.5131593990910851, 5.2128019389601645 1.663267340541954, 5.829125740422391 1.7116926558822465 C6.445449541884618 1.760117971222539, 6.564803848691493 -0.7758124875671558, 6.242408197825786 -0.1692399968650169 C5.92001254696008 0.437332493837122, 3.9579987496808826 4.990467977569322, 3.894751835228151 5.35112760009508 C3.8315049207754193 5.711787222620838, 6.144655984635663 1.8780985634362144, 5.862926711109395 1.994717738289531 C5.5811974375831275 2.1113369131428477, 2.885548754396086 6.280860163338844, 2.2043761940705466 6.05084264921498 C1.5232036337450072 5.820825135091115, 1.8197104390442724 1.3475841715419081, 1.7758913491561588 0.6146126535463419 C1.732072259268045 -0.11835886444922428, 2.1864432218623935 2.110826509828747, 1.9414616547418644 1.6530135412415832 C1.696480087621335 1.1952005726544193, 0.5296542705200572 -1.5932517615985624, 0.30600194643298306 -2.1322651579766414 C0.0823496223459089 -2.6712785543547204, 0.7475808734073512 -2.3540143127991517, 0.5995477102194192 -1.5810668370268897 C0.4515145470314872 -0.8081193612546275, -0.9779420116423911 2.427064460965824, -0.5821970326946092 2.505419696656931" style="stroke: rgb(0, 0, 0); stroke-width: 4; fill: none;"></path></g><g><g transform="translate(250 131) rotate(0 -0.7656658325385592 100.24392373323442)"><path d="M-2.2490336179733275 -1.501773190498352 C-2.815433001518249 32.40025037924448, -3.3067469358444215 167.11865985393524, -3.0936785459518434 201.2429083585739 M1.601428384780884 0.4695617580413822 C1.7087883090972902 33.94046843528747, 1.0194050693511967 168.32210265159608, 0.495622415542603 201.98962065696716" style="stroke: rgb(0, 0, 0); stroke-width: 1; fill: none;"></path></g></g><g><g transform="translate(229.5 120) rotate(0 -3.0097743105888526 101.74088999509814)"><path d="M-2.5937287569046017 -2.680824542045593 C-3.10876247882843 30.826384472846982, -4.134493629137674 169.75802789529166, -4.281469082832336 203.8059026002884 M-2.9195446872711184 -2.3015992641448975 C-2.920669260025025 31.79414933204651, -2.158566293716431 171.9864360141754, -1.7380795383453371 206.16260453224183" style="stroke: rgb(0, 0, 0); stroke-width: 1; fill: none;"></path></g></g><g><g transform="translate(204.5 119) rotate(0 0.06747374387742866 101.36181107759475)"><path d="M-1.7934931516647337 2.292075991630554 C-2.0510220925013223 36.61257286866506, -1.604559334119161 172.0830494006475, -1.3998080015182497 206.06795871257782 M1.6777778720855716 -3.344336557388306 C2.1041807651519777 29.849714651107792, 2.344152994155883 167.70918089866638, 0.9300383090972897 202.39921843528748" style="stroke: rgb(0, 0, 0); stroke-width: 1; fill: none;"></path></g></g><g><g transform="translate(173.5 119) rotate(0 -0.7104955959320023 102.93772456645968)"><path d="M1.4746297121047975 0.25083301067352304 C1.2131131410598757 34.35109876791636, -1.4014429807662965 172.04587543010712, -2.2397417783737184 205.62461612224578 M1.6511964511871335 0.9038952541351319 C1.0589470005035397 34.41066130638122, -2.636295614242554 167.35440489768982, -3.072187643051148 201.35028227806092" style="stroke: rgb(0, 0, 0); stroke-width: 1; fill: none;"></path></g></g><g><g transform="translate(150.5 118) rotate(0 -3.1851009347343506 103.48611462116239)"><path d="M-0.6595162630081175 0.49046833515167254 C-1.5945613781611123 35.36104811827342, -4.326371630032857 172.81504668394726, -4.402993893623352 206.48176090717317 M-1.9740420627593998 1.5755885410308839 C-2.296934213638306 35.46857346534729, -6.1808175754547126 171.97481522560122, -5.685535898208618 205.0566575717926" style="stroke: rgb(0, 0, 0); stroke-width: 1; fill: none;"></path></g></g><g><g transform="translate(125.5 117) rotate(0 -1.1395926403999397 101.30365525484086)"><path d="M2.483688855171203 -0.2552720308303833 C1.1659060080846146 33.882249585787456, -4.242155973116557 172.38902169068655, -5.236200213432312 205.97949740886688 M2.957014932632447 -3.3721868991851807 C1.612597513198853 30.394559621810913, -3.7151255702972414 167.3135961818695, -4.233810567855835 202.2500790309906" style="stroke: rgb(0, 0, 0); stroke-width: 1; fill: none;"></path></g></g><g><g transform="translate(100.5 117) rotate(0 -0.6962746874809227 102.63948334693907)"><path d="M-0.06116344928741446 -1.2208605527877807 C0.012377047538757416 32.68579507668813, -0.5669673840204872 167.5507392803828, -0.7597436189651487 201.8157689332962 M-0.8051269626617432 -1.5636146450042725 C-1.6531655979156494 32.743423013687135, -1.2373516941070555 172.73637375831603, -1.2025290012359617 206.84258133888244" style="stroke: rgb(0, 0, 0); stroke-width: 1; fill: none;"></path></g></g><g><g transform="translate(79.5 118) rotate(0 -1.2368703126907121 102.89688477516174)"><path d="M0.9575247526168824 -1.7226664304733275 C0.09904213746388768 31.963017519315084, -2.847872281074524 167.59045358498892, -3.431265377998352 201.58893864154817 M-2.3816787815093994 -2.1764622402191165 C-1.8664459323883058 32.048397684097296, -1.0422042942047123 173.65651444435122, -0.6087976169586184 207.9702317905426" style="stroke: rgb(0, 0, 0); stroke-width: 1; fill: none;"></path></g></g><g><g transform="translate(57.5 123) rotate(0 -0.8635088849067643 102.17279494285583)"><path d="M2.3940739870071406 2.745426821708679 C2.2618705670038852 36.78747317790985, -1.621549487113953 168.6180408557256, -2.5018893003463747 201.90158298015595 M-4.121091756820679 -1.8601934909820557 C-3.7713294887542723 32.61424834251404, -0.4017478847503657 172.32785521507262, -0.8800031948089595 206.20578337669372" style="stroke: rgb(0, 0, 0); stroke-width: 1; fill: none;"></path></g></g><g><g transform="translate(33.5 130) rotate(0 -2.004573547649386 101.58470728635791)"><path d="M0.5830115079879761 2.5485020875930786 C-0.06686108112335198 36.31541976133982, -4.77209255695343 170.7535166343053, -5.055729794502258 203.86708958148955 M1.0377664089202883 -0.6976750087738037 C1.357354726791382 33.0900169467926, -1.4087356662750246 166.9006532382965, -1.7503485202789308 201.4465776157379" style="stroke: rgb(0, 0, 0); stroke-width: 1; fill: none;"></path></g></g><g transform="translate(320 227) rotate(0 11.5 53)"><path d="M1.0426642894744873 2.4479172229766846 L26.412270307540894 1.7000153064727783 L20.4388587474823 109.15059971809387 L2.598992109298706 105.94810795783997" style="stroke: none; stroke-width: 0; fill: rgb(253, 126, 20);"></path><path d="M1.2976410388946533 -1.5694115161895752 C7.95291412472725 -2.340186401605606, 9.923861038684846 -0.33654718041419984, 20.560282945632935 0.41806864738464355 M1.210598349571228 0.7929321527481079 C4.568160098791123 0.4460985672473908, 11.062806808948517 -1.5709187972545624, 24.737175345420837 -0.8089011907577515 M19.931559801101685 3.3231589794158936 C19.84631409883499 40.61360086202622, 20.570336010456085 77.78758766651154, 23.252063035964966 105.33480906486511 M24.532493948936462 -0.9845908880233765 C24.76368382692337 38.71809791326523, 22.302612812519072 78.96534237861634, 21.137562155723572 104.26281893253326 M25.621386766433716 106.96060252189636 C16.731738299131393 106.87212943673134, 8.673388659954071 106.80594443917275, -2.117436170578003 103.23861002922058 M22.636982321739197 106.77365267276764 C16.544952875375746 105.50490543246269, 9.207195889949796 104.03451892733574, 0.06663548946380615 106.56171190738678 M1.937434434890747 107.89760661125183 C-0.9343280720710756 82.7536315560341, -2.038919441699982 59.72757642269134, -0.7279021739959717 -0.5658409595489502 M0.42640721797943115 105.10281908512115 C-1.3408741211891173 78.30282269716263, -0.9618572449684142 50.555194473266596, 1.8017390966415405 -0.2520660161972046" style="stroke: rgb(0, 0, 0); stroke-width: 1; fill: none;"></path></g><g transform="translate(290 168) rotate(0 24.5 34)"><path d="M41.442365461316086 12.188357268524165 C44.45765229843445 17.56071469495252, 47.78627895537121 28.44304321601057, 47.83486464823839 35.85546735093306 C47.883450341105565 43.26789148585556, 44.62013307854456 51.24361696249457, 41.73387961851917 56.66290207805912 C38.847626158493775 62.08218719362367, 35.58985051175138 67.4986362350651, 30.51734388808604 68.37117804432035 C25.4448372644207 69.24371985357558, 16.426600492755032 65.98218265348869, 11.298839876527126 61.898152933590524 C6.171079260299219 57.81412321369235, 1.2188136058975327 50.22931772980869, -0.2492198092813993 43.866999724931304 C-1.7172532244603314 37.50468172005392, 0.6622429967675882 30.061986457638206, 2.490639385453534 23.724244904326195 C4.319035774139479 17.386503351014184, 6.431482246527588 9.724803432144107, 10.721158522834275 5.840550405059243 C15.010834799140962 1.9562973779743795, 22.466885321419092 -1.8436672384958848, 28.228697043293653 0.41872674181701086 C33.990508765168215 2.6811207221299065, 42.035562705365486 14.905847217347178, 45.292028854081636 19.414914286936618 C48.548495002797786 23.923981356526056, 47.8260112775651 27.120245260751147, 47.767493935590565 27.47312915935365 M29.018503652566842 -1.535408632615777 C34.00833411835979 -1.0569024288718563, 38.64911160793745 6.096847286404931, 42.18112157405925 11.327446721536024 C45.713131540181045 16.558046156667118, 49.66965586209838 22.547441057145768, 50.21056344929764 29.84818797817078 C50.751471036496895 37.148934899195794, 48.449809197148916 49.036133956551375, 45.426567097254804 55.131928247686105 C42.40332499736069 61.227722538820835, 37.44342985201886 65.2856787953637, 32.07111084993298 66.42295372497915 C26.698791847847097 67.56022865459461, 18.61374383855616 64.74693390646972, 13.19265308473951 61.95557782537883 C7.771562330922857 59.16422174428795, 1.7518379951022474 56.24177098648987, -0.4554336729669366 49.67481723843385 C-2.6627053410361206 43.10786349037784, -2.2648344673301057 30.361714977057822, -0.05097692367559503 22.553855337042723 C2.1628806199789157 14.745995697027624, 8.476750910746055 6.435787954952183, 12.827711588960128 2.827659398343247 C17.1786722671742 -0.7804691582656891, 23.476519529906106 1.1760507373669136, 26.05478714560883 0.9050839973891058 C28.633054761311556 0.6341172574112981, 27.707555802264803 1.2216601765115627, 28.297317283176472 1.2018589584764001" style="stroke: none; stroke-width: 0; fill: rgb(64, 192, 87);"></path><path d="M21.63879063343049 0.8109947808618614 C26.844533321986553 -0.7095522853910268, 33.653529382743585 -0.026291121679061558, 38.0386103301225 3.447192232009641 C42.42369127750142 6.920675585698344, 46.04420368572096 14.785084005014472, 47.94927631770401 21.651894902994076 C49.854348949687065 28.51870580097368, 51.57010012875318 37.68718431876391, 49.46904612202084 44.64805761988727 C47.3679921152885 51.608930921010625, 40.08781755821147 59.56000968707568, 35.342952277309955 63.4171347097342 C30.59808699640844 67.27425973239272, 25.853278141047845 69.29624237233452, 20.99985443661175 67.7908077558384 C16.146430732175652 66.28537313934228, 9.799017418427612 59.76094184949309, 6.222410050693387 54.384527010757516 C2.6458026829591628 49.00811217202194, -0.595016862512157 42.46549795141602, -0.4597897697935984 35.532318723424915 C-0.32456267707503983 28.59913949543381, 2.786862270674571 18.769252788264545, 7.033772607004739 12.785451642810894 C11.280682943334906 6.801650497357244, 21.097055907378746 1.5773055096135244, 25.021672248187407 -0.3704881492969889 C28.94628858899607 -2.3182818082075025, 30.26069897951752 0.6624345306589952, 30.581470651856716 1.0986896893478146 M20.374109900140766 1.8676025547892294 C25.343293674056728 -0.464508422880209, 33.16953901943215 -0.38777335400219215, 37.52814747651389 3.378439295365016 C41.88675593359562 7.1446519447322245, 45.14644262884093 17.062355312002314, 46.52576064263118 24.46487845099248 C47.90507865642142 31.867401589982645, 46.99464248054939 41.56369565792972, 45.80405555925536 47.79357812930601 C44.61346863796133 54.023460600682306, 43.86576575836669 58.80961282335042, 39.382239114867026 61.84417327925024 C34.89871247136736 64.87873373515006, 24.915731693512303 66.89329276623124, 18.902895698257378 66.00094086470496 C12.890059703002454 65.10858896317868, 6.585881325265438 61.936853432918156, 3.3052231433374786 56.49006187009253 C0.02456496140951847 51.04327030726691, -0.8578892280437435 41.10416275891181, -0.7810533933103834 33.320191487751224 C-0.7042175585770233 25.536220216590635, 0.0913860180512831 15.05554358789269, 3.766238151737639 9.786234243129005 C7.441090285423995 4.51692489836532, 18.89331895374448 3.086157578747497, 21.26805940880775 1.7043354191691122 C23.642799863871023 0.32251325959072763, 17.784262233399872 1.268519262212785, 18.014680882117275 1.495301285658698" style="stroke: rgb(0, 0, 0); stroke-width: 1; fill: none;"></path></g><g transform="translate(306.5 142) rotate(0 24.5 34)"><path d="M6.574801939332943 15.775304270523325 C8.964480333937837 9.649545539281021, 13.44267734711611 1.2857092608816814, 18.523725827996262 -0.7525687606132507 C23.604774308876415 -2.790846782108183, 32.48870040972889 0.3029202219920415, 37.06109282461386 3.5456361415537323 C41.633485239498825 6.7883520611154236, 43.978858003894516 11.890916318992037, 45.95808031730604 18.703726756756893 C47.93730263071757 25.51653719452175, 49.89087253638632 37.254188759724926, 48.93642670508302 44.42249876814286 C47.981980873779726 51.59080877656079, 44.90957668423255 58.12115818370987, 40.231405329486265 61.71358680726449 C35.55323397473998 65.30601543081912, 26.153111470774444 66.40650709816953, 20.867398576605346 65.97707050947058 C15.581685682436248 65.54763392077163, 11.670656018915073 64.3165509079085, 8.51712796447168 59.136967275070795 C5.363599910028286 53.95738364223308, 1.8408351542336927 43.55691685677257, 1.9462302499449855 34.899568712444285 C2.0516253456562783 26.242220568116004, 7.699297820648061 12.275535950877227, 9.149498538739437 7.1928784091011195 C10.599699256830812 2.110220867325011, 10.276986874439775 3.8776150989492346, 10.64743455849324 4.403623461787635 M46.285953186100244 14.190530361444491 C49.2437061273699 19.828601545199735, 47.92322101740411 28.009455891884773, 47.05210894903048 35.4267249203753 C46.180996880656856 42.84399394886583, 44.702987922156176 53.703893240693795, 41.05928077585847 58.694144532387654 C37.41557362956076 63.68439582408151, 29.884161388604195 64.78153995843724, 25.189866071244232 65.36823267053845 C20.49557075388427 65.95492538263966, 16.932435948777123 66.14213030402507, 12.893508871698696 62.21430080499491 C8.85458179462027 58.286471305964746, 2.7872452739048477 48.25886435603714, 0.9563036087736663 41.80125567635744 C-0.8746380563575151 35.34364699667775, 0.10934347801637645 30.21379521615517, 1.9078588809116077 23.468648726916754 C3.7063742838068388 16.72350223767834, 7.38989479878382 5.377660432374611, 11.747396026145054 1.3303767409269476 C16.104897253506287 -2.716906950520716, 22.273760722834687 -2.712298581361506, 28.05286624507901 -0.8150534217692282 C33.83197176732333 1.08219173782305, 44.354560753163106 10.730238708998458, 46.42202915961098 12.713847698480617 C48.48949756605885 14.697456687962775, 41.50614786572426 11.146429545586342, 40.45767668376625 11.086600515123727" style="stroke: none; stroke-width: 0; fill: rgb(64, 192, 87);"></path><path d="M14.115275025063296 4.097513745537686 C18.96286269852284 0.8509813160236632, 28.331472370794618 -0.5087545175063699, 33.44107838779377 1.6062600717528497 C38.550684404792925 3.7212746610120693, 42.354348582923166 10.446893492475102, 44.77291112705822 16.787601281093004 C47.19147367119328 23.128309069710905, 48.587348378253665 32.35436714722401, 47.95245365260409 39.65050680346026 C47.31755892695452 46.94664645969651, 44.833148720076984 55.968187431332, 40.96354277316079 60.5644392185105 C37.093936826244594 65.160691005689, 29.986546286114393 67.12355405864324, 24.734817971106928 67.22801752653129 C19.483089656099462 67.33248099441934, 13.712781414486248 65.7600333116485, 9.453172883116002 61.19122002583879 C5.193564351745757 56.62240674002907, 0.03019251825162461 46.88829307360876, -0.8228332171145389 39.81513781167298 C-1.6758589524807026 32.74198254973721, -0.5788914738907787 25.157244278471193, 4.335018470919021 18.75228845422415 C9.24892841572882 12.347332629977107, 22.568837811478055 3.2279664329010824, 28.66062645174426 1.3854028661907165 C34.752415092010466 -0.4571607005196494, 41.31037461915153 7.366578491238458, 40.885750312516244 7.696907053961954 M36.85674724570033 5.048650063365084 C40.77468303054883 8.011784401130278, 43.22638791066455 14.257281759507059, 45.150443831852485 20.495797630273398 C47.07449975304042 26.734313501039736, 49.83735225387934 35.668569753831754, 48.40108277282796 42.47974528796313 C46.964813291776586 49.2909208220945, 40.74282071819881 57.407138211530764, 36.53282694554422 61.36285083506165 C32.32283317288964 65.31856345859254, 28.02217971293421 67.30198784705544, 23.141120136900472 66.21402102914843 C18.260060560866734 65.12605421124141, 11.15185572240597 60.06384084155565, 7.246469489341795 54.83504992761951 C3.3410832562776207 49.60625901368336, -0.4134794035109728 41.43196660512498, -0.29119726148457303 34.841275545531545 C-0.16891511945817328 28.250584485938113, 5.145764964120215 20.76907217553054, 7.980162341500193 15.29090357005892 C10.814559718880172 9.8127349645873, 11.89695543723932 3.761723651915604, 16.7151870027953 1.9722639127018198 C21.53341856835128 0.18280417348803546, 33.44106702914692 4.00694117637755, 36.88955173483607 4.554145134776213 C40.338036440525215 5.101349093174877, 37.69651996591833 5.155953196848515, 37.4060952369302 5.255487663093799" style="stroke: rgb(0, 0, 0); stroke-width: 1; fill: none;"></path></g><g transform="translate(328.5 175) rotate(0 24.5 34)"><path d="M44.326670595736815 13.980039630731788 C47.44960699547332 19.572800172745108, 48.70566872517622 29.238922867579692, 47.99939034169309 36.980264353148684 C47.29311195820997 44.72160583871767, 43.650976109765516 55.111187154375344, 40.08900029483807 60.42808854414573 C36.52702447991063 65.74498993391612, 31.489452233242744 68.83054056592053, 26.62753545212843 68.881672691771 C21.765618671014117 68.93280481762147, 14.997143775285924 65.1832276021456, 10.9174996081522 60.73488129924854 C6.837855441018477 56.28653499635147, 3.3196344059943357 49.35389254102115, 2.149670449326095 42.19159487438858 C0.9797064926578545 35.029297207756, 1.5676893626918003 24.463269363710225, 3.8977158681427575 17.76109529945309 C6.227742373593715 11.058921235195953, 11.501488260760699 4.5465611846198986, 16.129829482031838 1.9785504888457623 C20.758170703302977 -0.5894602069283734, 25.902533010871895 -3.456234446590827, 31.6677631957696 2.3530311248082754 C37.4329933806673 8.162296696207378, 48.81890024943006 28.11894134070086, 50.72121059141805 36.834143917240375 C52.62352093340604 45.54934649377989, 43.85200638828101 54.55857844803939, 43.081625247697545 54.64424658404536 M27.17680476266788 2.6019616156267844 C31.5862448603552 2.6000737484134415, 35.43404030379091 6.549397821779157, 39.4140074005531 10.679521006372497 C43.3939744973153 14.809644190965837, 50.096149223158214 20.68913829133118, 51.05660734324107 27.382700723186822 C52.017065463323924 34.07626315504246, 47.897930358316984 43.95903028311007, 45.176756121050225 50.840895597506346 C42.455581883783466 57.722760911902625, 39.96785035486057 66.65413046252559, 34.7295619196405 68.67389260956452 C29.491273484420432 70.69365475660345, 19.13201221060707 66.18515801004664, 13.747025509729792 62.95946847973998 C8.362038808852514 59.73377894943332, 4.472276379052511 55.03262846440425, 2.419641714376837 49.319755427724566 C0.36700704970116327 43.606882391044884, 0.6241767770899447 35.59766239000021, 1.4312175216757481 28.68223025966188 C2.2382582662615516 21.766798129323544, 3.546877941063055 12.551366037355848, 7.261886181891658 7.827162645694564 C10.97689442272026 3.102959254033279, 20.857361299598338 1.3050889420541965, 23.721266966647367 0.3370099096941672 C26.585172633696395 -0.6310691226658621, 24.63920564835056 1.3065835280566973, 24.44532018418584 2.0186884515343877" style="stroke: none; stroke-width: 0; fill: rgb(64, 192, 87);"></path><path d="M39.26320794410312 7.975567383602133 C43.45500571467456 12.30656752810508, 48.98687289413388 23.551552281896168, 49.74909262463191 30.875102055589373 C50.511312355129945 38.19865182928258, 46.770066908688214 45.69482567312054, 43.836526327091335 51.916866025761365 C40.902985745494455 58.13890637840219, 36.87669423713499 65.99217740565605, 32.14784913505065 68.20734417143433 C27.419004032966306 70.4225109372126, 20.518454465563252 68.60123554744517, 15.463455714585272 65.20786662043105 C10.408456963607295 61.81449769341692, 4.589522878173112 53.99592088796217, 1.8178566291827813 47.847130609349556 C-0.9538096198075485 41.69834033073694, -2.6981533736927448 35.183833028928866, -1.1665417793567059 28.315124948755358 C0.3650698149793328 21.44641686858185, 6.276137097814775 11.084707394339796, 11.007526195199013 6.634882128308504 C15.73891529258325 2.1850568622772126, 21.676245535088384 0.5995586207314965, 27.22179280494872 1.616173352567607 C32.767340074809056 2.6327880844037175, 41.25887223263892 10.996579601744989, 44.28080981436102 12.734570519325167 C47.30274739608312 14.472561436905346, 45.97528637807332 11.62607700322004, 45.3534182952813 12.044118858048684 M16.706281723134264 4.201760132327621 C21.650557406024966 1.2743773145408714, 30.491448729927317 0.5876089132818578, 35.46438139336527 2.4898411515074024 C40.437314056803224 4.392073389732947, 43.933442756471436 9.07868048433778, 46.54387770376199 15.615153561680888 C49.15431265105255 22.151626639023995, 52.59486312449311 34.31851591579444, 51.12699107710863 41.70867961556605 C49.659119029724145 49.09884331533765, 42.14357261840304 55.96563255007373, 37.73664541945511 59.95613576031053 C33.329718220507175 63.94663897054733, 29.295085310833382 66.23274290997234, 24.685427883421024 65.65169887698686 C20.075770456008666 65.07065484400137, 14.475233459208983 60.75238250667216, 10.078700854980958 56.469871562397614 C5.682168250752935 52.187360618123066, -0.45797582421002825 47.11125334913297, -1.69376774194712 39.95663321133957 C-2.9295596596842115 32.80201307354617, -0.8994344322225714 19.86743566073214, 2.6639493485584076 13.542150735637215 C6.227333129339387 7.216865810542288, 16.900842104392446 3.6029201476176134, 19.686534942738753 2.004923660770011 C22.47222778108506 0.4069271739224085, 19.18837477281428 2.9994388941435997, 19.378106378636254 3.9541718145516" style="stroke: rgb(0, 0, 0); stroke-width: 1; fill: none;"></path></g></svg>