<svg version="1.1" xmlns="http://www.w3.org/2000/svg" viewBox="0 0 1307.9093661037468 837.1912228411217">
  <!-- svg-source:excalidraw -->
  <defs>
    <style>
      @font-face {
        font-family: "Virgil";
        src: url("https://excalidraw.com/FG_Virgil.woff2");
      }
      @font-face {
        font-family: "Cascadia";
        src: url("https://excalidraw.com/Cascadia.woff2");
      }
    </style>
  </defs>
  <g transform="translate(10.937216730900559 11.584576882241208) rotate(359.8587036661815 643.017466320973 380.83540867598725)"><path d="M-1.526498855650425 0.7737388983368874 L1284.7852942618356 -1.2942463025450708 L1285.0716624888407 762.8572568080201 L0.2189827784895897 762.5885178229585" style="stroke: none; stroke-width: 0; fill: rgb(107, 64, 38);"></path><path d="M-1.5180799588561058 0.7623060569167137 C289.37966206729857 5.830800449768086, 577.8973152873009 3.433712255874653, 1285.0800632181392 0.2980434283614159 M-0.32861839011311533 -0.3383091501891613 C358.705544939754 8.477161023373139, 715.7535197625411 7.660597011799347, 1285.373982284479 -0.7347052864730359 M1284.599652070068 0.77151487916708 C1287.3135158044504 291.06283032831743, 1286.856262109916 578.9109679820576, 1286.6797952833401 760.2353800884262 M1285.6314394454287 -0.22008908316493037 C1280.737399940861 209.0712542730045, 1280.1596444181332 419.6676459995353, 1285.7491738538074 761.408355112262 M1284.6849676313625 762.3097914806381 C982.0966509904137 765.7473233748245, 681.2904525745626 767.2082826662826, -1.4616293534636497 760.9602963081375 M1285.68190567296 762.305997438617 C897.092385577229 761.4597783042154, 508.21604220879277 760.5975645734034, -0.6968716926872731 761.3773396446182 M0.04123586565256119 761.7672882667556 C-0.16949771020775872 539.8067642262089, 0.414859313031377 316.74554285900217, -0.2444137677550316 0.303016696870327 M-0.254294902831316 761.8015627815201 C1.4053021096915197 545.7909311113709, 2.2839140796393345 330.94613882720796, 0.40285448357462883 -0.2112233690917492" style="stroke: rgb(0, 0, 0); stroke-width: 4; fill: none;"></path></g><g transform="translate(41.9802956563409 85.19122284112166) rotate(0 504.5 302.5)"><path d="M-1.5481963768601419 -0.1873074159026146 L1007.4837269648909 1.58432225137949 L1009.019396339357 603.6806970968843 L-0.8704363003373147 604.1693464174866" style="stroke: none; stroke-width: 0; fill: rgb(206, 212, 218);"></path><path d="M-0.9351046666502953 0.762636123597622 C286.2887989691459 5.539781472571194, 570.5868130175397 5.680861613638699, 1008.3053489103913 1.2972534999251366 M-0.4849368162453175 -0.38505697771906855 C234.94013728806752 0.44924644609540676, 469.96520452592523 -0.2637210688963535, 1009.6592708282172 -0.3378511242568493 M1008.8031848326325 0.33505600541830066 C1011.7402133712544 210.44013402862475, 1010.4142737636342 423.28064753767103, 1007.6428953066468 606.5993471488357 M1008.5524091415107 0.7416698642075062 C1008.5321744040773 138.68306241305544, 1009.7649092988298 279.41441544163973, 1008.3938023023308 605.630935806781 M1009.0083459749818 604.668558345735 C719.5986456790007 605.7930473709032, 427.7690128268673 608.2497921848222, 0.26044811159372333 604.2907947406172 M1009.6399496488273 604.8094985432923 C733.9978922917508 597.8448055974022, 459.3333183025941 598.9651922694221, -0.06905468180775642 604.4614544577896 M-1.3693770989775658 606.1980552539229 C-0.2731359771266584 372.2729348649271, -1.2807070544734602 140.58198043052107, 1.134813965857029 1.0049458846449852 M0.6021720103919507 605.2451136298478 C1.7322821431234479 388.6039216327481, 2.5001931243017315 170.4853561310097, 0.7194059304893017 0.04367064908146859" style="stroke: rgb(0, 0, 0); stroke-width: 4; fill: none;"></path></g><g transform="translate(1070.9802956563408 55.19122284112166) rotate(0 107 337)"><path d="M-1.213529358804226 0.924321161210537 L214.30677279382945 -1.3704690590500832 L213.68805059343578 675.0901957377791 L0.8384583368897438 673.6223800048232" style="stroke: none; stroke-width: 0; fill: rgb(206, 212, 218);"></path><path d="M2.996120107739751 1.351051905522497 C56.01077226828013 0.9331209390497296, 108.50285682444276 0.7596291590385048, 212.93926071895797 -0.22680478006781785 M0.8776542489680804 -0.9516744617895043 C61.46789031857558 2.8597901885208916, 119.72429930425133 0.4369851245718077, 212.3977674985153 -0.7835879679678119 M213.19566973298788 -0.2263189420104027 C214.89723893932998 225.5779696615413, 214.2763119392842 453.86545070894067, 213.49895318597555 673.5692402258516 M213.5105138488114 -0.7860040254890919 C209.04721595351398 218.46130726393312, 208.7163384348601 438.30953942127525, 213.58914594128728 673.6637318782508 M216.95154038257715 676.4680313815869 C152.39646329589817 668.1182051245421, 87.66532207583755 671.2038778541227, -0.7981489762394264 676.5793055466467 M212.559402051458 673.3925971282018 C136.5129740276182 671.9495903521399, 62.57723055075496 670.8434991467983, -1.0398100881717405 674.1583666619084 M1.1333821162581443 673.0881338968873 C-2.057047196552158 462.2125376699492, -2.257719679996372 251.0323409181088, -0.46194588094949723 -0.9896193131804467 M-0.2404399685561657 674.1222778253257 C-4.471771878823638 484.28154766354703, -4.148933882340789 296.61610360406337, 0.7540261693298818 0.7972197227180005" style="stroke: rgb(0, 0, 0); stroke-width: 4; fill: none;"></path></g><g transform="translate(1097.9802956563408 104.19122284112166) rotate(0 82.5 96)"><path d="M57.42345594513654 2.8290346876062387 C66.95528394306231 -2.06391029405831, 78.83684934306005 -0.7813764761680371, 89.80085516131886 0.9086407055905568 C100.76486097957768 2.598657887349151, 113.20434139136704 6.72681685994898, 123.2074908546894 12.969137778157801 C133.21064031801174 19.211458696366623, 142.9269466435661 27.70089536432507, 149.819751941253 38.36256621484348 C156.7125572389399 49.024237065361895, 162.1308284459277 63.95637545912306, 164.56432264081073 76.93916288126826 C166.99781683569375 89.92195030341347, 166.94952826734635 103.56790724120778, 164.42071711055118 116.25929074771469 C161.891905953756 128.9506742542216, 155.94986948568896 142.9660175822209, 149.39145570003973 153.08746392030972 C142.8330419143905 163.20891025839853, 134.8342905334556 170.53184194763338, 125.07023439665579 176.98796877624767 C115.30617825985597 183.44409560486196, 102.06238462510933 190.15880722338295, 90.80711887924082 191.8242248919955 C79.5518531333723 193.48964256060805, 68.10517373836554 190.5892073445514, 57.538639921444734 186.9804747879229 C46.97210610452393 183.3717422312944, 35.77505578693789 178.372071397203, 27.407915977716023 170.17182955222455 C19.040776168494155 161.9715877072461, 11.785049891918028 149.68675653882278, 7.335801066113518 137.7790237180522 C2.886552240309009 125.87129089728164, 1.0420716319754793 111.68991882421533, 0.7124230228889701 98.72543262760115 C0.38277441380246086 85.76094643098698, 1.167461635848447 72.12494233432832, 5.357909411594463 59.99210653836712 C9.548357187340478 47.85927074240592, 17.365833017933348 34.66862963986827, 25.855109677365064 25.92841785183394 C34.34438633679678 17.188206063799612, 49.891828436910295 11.125969402354237, 56.29356936818476 7.550835810161132 C62.69531029945923 3.9757022179680277, 62.31001249463971 5.30561724921601, 64.26555526501187 4.477616298675315 C66.22109803538403 3.649615348134619, 68.06820309903367 1.0198970881399347, 68.02682599041775 2.5828301069169584 M52.79861965944748 5.263924785623743 C61.38063563977466 -0.026669155281950907, 74.45063054761918 0.9860656150359025, 86.1703157617274 1.8421781815724785 C97.8900009758356 2.6982907481090543, 112.3709370633849 4.8025477566796, 123.11673094409676 10.4006001848432 C133.86252482480862 15.998652613006797, 144.0942736469446 25.164523228564832, 150.64507904599856 35.43049275055407 C157.1958844450525 45.696462272543314, 160.33149586699548 59.01305395178779, 162.4215633384204 71.99641731677863 C164.51163080984534 84.97978068176948, 164.94946090352985 100.37669555991303, 163.18548387454808 113.33067294049914 C161.4215068455663 126.28465032108525, 158.18034585874742 139.1906851341026, 151.83770116452985 149.7202816002953 C145.49505647031228 160.24987806648798, 134.4447206037212 169.29307074958547, 125.1296157092427 176.50825173765526 C115.8145108147642 183.72343272572505, 106.75987472848888 191.40090742979055, 95.94707179765885 193.0113675287141 C85.13426886682882 194.62182762763763, 70.77575438944137 189.8730496092324, 60.25279812426247 186.17101233119647 C49.72984185908357 182.46897505316053, 41.544484904326424 179.10252859237943, 32.809334206585454 170.79914386049848 C24.074183508844484 162.49575912861752, 13.174969822332045 148.44478612138244, 7.841893937816636 136.3507039399107 C2.508818053301227 124.25662175843894, 1.5436910191210842 110.66733066866965, 0.8108788994930052 98.23465077166794 C0.07806677986492616 85.80197087466624, -0.7767671569658559 72.988144408961, 3.4450212200481616 61.75462455790046 C7.666809597062179 50.52110470683993, 17.752856817275138 39.8404276876654, 26.141609161577108 30.83353166530472 C34.53036150587908 21.82663564294404, 48.42980275148085 11.669973004416654, 53.77753528586 7.713248423736388 C59.125267820239145 3.7565238430561223, 57.67915700860429 6.839807259824506, 58.22800436785201 7.093184181223123 C58.776851727099725 7.346561102621739, 56.69072395327937 7.741644532340961, 57.07061944134632 9.233509952128088" style="stroke: none; stroke-width: 0; fill: rgb(134, 142, 150);"></path><path d="M104.23098604147923 5.194877702441772 C114.80140352104473 7.218077657997625, 127.1638393300445 13.086002695770903, 135.85916750942633 21.278100586927394 C144.55449568880817 29.470198478083887, 151.5459440958948 42.75753925465282, 156.40295511777023 54.347465049380716 C161.25996613964566 65.93739084410862, 164.5906124681594 78.14232569760571, 165.00123364067883 90.81765535529478 C165.41185481319826 103.49298501298384, 163.0169439900031 117.9260897884096, 158.86668215288688 130.39944299551505 C154.71642031577065 142.8727962026205, 147.89557836515885 156.792275566162, 140.0996626179815 165.6577745979275 C132.30374687080413 174.523273629693, 122.51742769443788 179.02773302355743, 112.09118766982277 183.592437186108 C101.66494764520766 188.15714134865854, 88.52540008651903 193.34919956149082, 77.54222247029087 193.04599957323086 C66.5590448540627 192.7427995849709, 55.71604289200171 187.43689032156982, 46.192121972453805 181.7732372565482 C36.6682010529059 176.1095841915266, 27.64109223342518 168.7115527499017, 20.398696953003416 159.06408118310128 C13.156301672581652 149.41660961630086, 5.839766679429738 136.63030837462793, 2.7377502899232127 123.88840785574574 C-0.36426609958331246 111.14650733686355, 0.20544667148863982 95.85881637553439, 1.786598615964266 82.61267806980813 C3.367750560439892 69.36653976408186, 6.30075584692085 55.088703852037945, 12.22466195677697 44.41157802138814 C18.14856806663309 33.73445219073833, 28.38692805068338 25.663144553575084, 37.33003527510099 18.54992308590927 C46.2731424995186 11.436701618243458, 54.868260975322535 4.206244232899458, 65.88330530328263 1.7322492153932671 C76.89834963124272 -0.7417458021129235, 90.34433575021478 -1.0967624988779079, 103.42030124286154 3.7059529808721265 C116.4962667355083 8.508668460622161, 134.67703700147115 17.994376345654615, 144.3390982591632 30.548542093893474 C154.00115951685524 43.10270784213233, 162.35200023194648 77.70963717704117, 161.39266878901373 79.03094747030528 M74.32050168650305 2.1962966506525703 C85.02711500914742 -0.6340638103690139, 101.66071721183317 0.5145551375460755, 112.59053664692883 4.014244059872681 C123.52035608202448 7.513932982199286, 131.99799344744818 13.691034272097161, 139.89941829707698 23.1944301846122 C147.80084314670577 32.69782609712724, 155.77625392312677 49.00254939529438, 159.99908574470163 61.03461953496293 C164.2219175662765 73.06668967463148, 165.43971183249158 82.81750018534424, 165.23640922652618 95.3868510226235 C165.03310662056077 107.95620185990276, 163.4080107717972 124.7229114377907, 158.7792701089092 136.4507245586385 C154.1505294460212 148.17853767948634, 146.05529719591254 157.47477705206595, 137.46396524919817 165.7537297477104 C128.8726333024838 174.03268244335484, 118.27713351786039 182.00579235609848, 107.23127842862293 186.12444073250526 C96.18542333938547 190.24308910891205, 82.66051439140963 191.29161711766835, 71.18883471377339 190.465620006151 C59.717155036137136 189.63962289463365, 47.34005556101221 187.90098056247015, 38.401200362805426 181.1684580634011 C29.462345164598645 174.43593556433203, 23.67703972681495 161.10895294109332, 17.55570352453269 150.07048501173665 C11.434367322250427 139.03201708237998, 3.928267423033835 127.52733790637575, 1.6731831491118498 114.93765048726115 C-0.5819011248101353 102.34796306814656, 2.0734026449916767 87.28863625096542, 4.0251978810007785 74.53236049704905 C5.97699311700988 61.77608474313268, 6.942425320882979 48.89630054020745, 13.383954565166462 38.399995963762905 C19.825483809449945 27.90369138731836, 32.73353172044642 17.911011873483528, 42.67437334670168 11.554533038381777 C52.615214972956935 5.198054203280026, 67.08237238725484 2.327521665707889, 73.029004322698 0.26112295315239464 C78.97563625814117 -1.8052757594031, 77.93592505552357 -1.1573803116622752, 78.3541649593607 -0.8438592369511895 C78.77240486319783 -0.5303381622401038, 75.95654988924599 0.32322663042792965, 75.5384437457208 2.1422494014189084" style="stroke: rgb(0, 0, 0); stroke-width: 4; fill: none;"></path></g><g transform="translate(1097.4802956563408 335.19122284112166) rotate(0 82.5 96)"><path d="M76.8655207621652 0.4701411268379019 C87.37826158631003 -1.5089694945329981, 98.94518652501951 2.917768686380872, 109.53188852982431 7.227160872140672 C120.11859053462912 11.536553057900473, 132.22832591112132 17.264388750724663, 140.385732790994 26.326494241396702 C148.5431396708667 35.38859973206874, 154.61156189623378 49.60567365647156, 158.47632980906042 61.599793816172905 C162.34109772188705 73.59391397587424, 163.77204262866636 85.48190702897497, 163.57434026795386 98.29121519960476 C163.37663790724136 111.10052337023455, 161.9173993264654 126.41477822946169, 157.29011564478543 138.45564283995168 C152.66283196310548 150.49650745044167, 144.6547753403759 162.124398986139, 135.81063817787415 170.5364028625447 C126.96650101537243 178.94840673895038, 114.7802468056698 185.46217323168483, 104.22529266977507 188.92766609838583 C93.67033853388034 192.39315896508683, 83.00681469147274 193.19432825797557, 72.48091336250573 191.32936006275062 C61.955012033538715 189.46439186752568, 50.3832568392583 184.46309535961305, 41.06988469597299 177.7378569270361 C31.756512552687674 171.01261849445913, 23.20894283474968 161.47426597197068, 16.60068050279385 150.9779294672889 C9.992418170838018 140.48159296260712, 3.9455446939180305 127.70173642111, 1.4203107042380054 114.75983789894539 C-1.1049232854420197 101.81793937678079, -1.0395599960165711 85.64883994308228, 1.4492765647136991 73.32653833430123 C3.9381131254439694 61.00423672552019, 9.90841074193608 50.9486508681184, 16.353330068619627 40.826028246259106 C22.798249395303174 30.703405624399814, 30.172807130207808 19.64143001341383, 40.11879252481497 12.590802603145477 C50.064777919422134 5.540175192877121, 67.16903002593185 0.857207180779239, 76.02924243626259 -1.4777362153510296 C84.88945484659334 -3.812679611481298, 88.4372884364486 -2.7885036814963327, 93.28006698679943 -1.4188577736361339 C98.12284553715025 -0.04921186577593528, 105.22969094551694 4.775832577155398, 105.08591373836761 6.740139231810161 M113.7932412408808 7.767230343735918 C123.22386532371497 10.746654542042991, 133.2101333106716 19.76011990004637, 140.7699564637985 29.388941937590047 C148.3297796169254 39.017763975133725, 155.20113531038123 53.52110170778984, 159.15218015964217 65.54016256899799 C163.1032250089031 77.55922343020613, 165.19993536979138 88.44087926723307, 164.47622555936408 101.50330710483892 C163.7525157489368 114.56573494244478, 159.79948191858867 131.70583223912203, 154.80992129707846 143.91472959463306 C149.82036067556825 156.1236269501441, 143.21676476511507 167.69040913476422, 134.5388618303029 174.75669123790507 C125.86095889549071 181.82297334104592, 113.79765237401645 183.9561344067074, 102.74250368820542 186.3124222134782 C91.68735500239438 188.66871002024897, 79.13316727160296 191.08067967770066, 68.20796971543665 188.89441807852978 C57.28277215927034 186.7081564793589, 46.87945018907852 180.14866436501575, 37.19131835120755 173.19485261845296 C27.50318651333658 166.24104087189016, 16.42428611085741 157.79364195327682, 10.079178688210831 147.17154759915303 C3.7340712655642543 136.54945324502924, 0.5692791430497692 121.75740473518367, -0.8793261846719105 109.46228649371022 C-2.32793151239359 97.16716825223678, -1.6059103663749852 86.01520235958598, 1.387546721880753 73.40083815031235 C4.381003810136491 60.78647394103873, 9.438043005370236 44.58962989711314, 17.081416344862518 33.77610123806846 C24.7247896843548 22.962572579023785, 37.280199185639425 14.229129611784199, 47.247786758834444 8.519666196044284 C57.21537433202946 2.81020278030437, 66.53089751203345 0.1501803600770918, 76.88694178403263 -0.48067925637101894 C87.24298605603181 -1.1115388728191298, 103.47758012761034 3.367419296248319, 109.38405239082954 4.73450849735562 C115.29052465404874 6.10159769846292, 111.9137720147512 6.940989978903919, 112.32577536334782 7.721855950272783 C112.73777871194443 8.502721921641646, 112.40932276488206 7.759411102724684, 111.8560724824092 9.419704325568802" style="stroke: none; stroke-width: 0; fill: rgb(134, 142, 150);"></path><path d="M134.4506056412498 21.370811025652486 C143.58160091597682 27.983288238790205, 152.66179433731375 41.27269772557361, 157.562026001005 53.01556864676583 C162.46225766469624 64.75843956795805, 163.4690554286237 78.67056213934089, 163.85199562339722 91.82803655280583 C164.23493581817073 104.98551096627077, 163.51017067749368 120.18641649711233, 159.859667169646 131.96041512755545 C156.20916366179833 143.73441375799857, 150.13975999261544 153.31366154115338, 141.94897457631112 162.47202833546453 C133.7581891600068 171.63039512977568, 121.20546735047148 181.86888290163938, 110.71495467182012 186.9106158934224 C100.22444199316877 191.95234888520542, 89.8494497997208 193.48670386803087, 79.00589850440295 192.7224262861626 C68.1623472090851 191.95814870429433, 55.64559562770057 188.1563929686758, 45.653646899913014 182.3249504022127 C35.661698172125455 176.4935078357496, 26.202075401348914 167.66939957130091, 19.054206137677603 157.73377088738408 C11.906336874006293 147.79814220346725, 6.0598926300962415 135.25248883034777, 2.76643131788515 122.71117829871172 C-0.5270299943259418 110.16986776707566, -2.275521017109294 95.4100007177833, -0.7065617355889486 82.4859076975677 C0.8623975459313964 69.56181467735209, 6.311315993832943 56.07692559318538, 12.18018700700722 45.166620177418096 C18.049058020181498 34.25631476165081, 25.238610870269724 24.578616427937224, 34.50666434345671 17.024075202964013 C43.7747178166437 9.469533977990803, 56.335067676363444 2.2593258092873256, 67.78850784612916 -0.1606271724211581 C79.24194801589489 -2.580580154129642, 92.32654589977298 -0.6919461807574359, 103.22730536205104 2.504357312713111 C114.1280648243291 5.700660806183658, 126.70137413450117 14.178493033879509, 133.19306461979755 19.017193788402125 C139.68475510509396 23.85589454292474, 139.53318691468954 27.05311081898204, 142.17744827382938 31.5365618398488 C144.82170963296923 36.02001286071556, 149.64071370838647 44.703835213300444, 149.0586327746367 45.917899913602675 M33.725043691802675 17.45110205524017 C41.43808084319105 8.961616681009898, 53.49627760144523 1.4591399532306326, 64.77600440228974 -0.7497659968703658 C76.05573120313426 -2.9586719469713643, 90.03392377854424 1.2151671377345132, 101.40340449686977 4.19766635463418 C112.7728852151953 7.180165571533847, 124.03288186155122 10.167927073472658, 132.99288871224292 17.145229304527632 C141.9528955629346 24.122531535582606, 150.2743621089564 34.35891392887902, 155.16344560101993 46.06147974096402 C160.05252909308345 57.764045553049016, 161.35387567678305 74.26832426738056, 162.32738966462404 87.36062417703761 C163.30090365246502 100.45292408669465, 164.09607417712968 112.4246156430403, 161.00452952806592 124.61527919890631 C157.91298487900215 136.80594275477233, 151.6386419819421 150.30562873629674, 143.7781217702415 160.5046055122337 C135.91760155854092 170.70358228817065, 124.11218179135798 180.3506289297733, 113.84140825786244 185.80913985452813 C103.5706347243669 191.26765077928295, 92.91205550701888 193.8836734695952, 82.15348056926821 193.25567106076255 C71.39490563151755 192.6276686519299, 59.6278538269123 187.763859716385, 49.28995863135844 182.04112540153216 C38.952063435804575 176.3183910866793, 27.754659543748566 168.62467030778592, 20.12610939594503 158.91926517164546 C12.497559248141492 149.213860035505, 6.347548438271927 135.6348307656123, 3.518657744537208 123.80869458468936 C0.6897670508024887 111.98255840376643, 1.7904690901427334 100.79484109132578, 3.1527652335367122 87.9624480861079 C4.515061376930691 75.13005508089002, 6.831102148702229 57.86266951059074, 11.69243460490108 46.814336553382105 C16.553767061099933 35.76600359617347, 28.707887591759533 26.61592312199079, 32.320759970729824 21.672450342856095 C35.93363234970011 16.7289775637214, 32.29613370116789 17.6283090073489, 33.36966887872282 17.15349987857394 C34.44320405627775 16.678690749798978, 37.56917223624156 17.688847148140635, 38.76197103605939 18.823595570206322" style="stroke: rgb(0, 0, 0); stroke-width: 4; fill: none;"></path></g><g transform="translate(1116.9802956563408 177.19122284112166) rotate(41.633539336570195 64 15.5)"><path d="M-1.9173000194132328 2.0107629038393497 C36.12597489580512 1.3751614142954351, 78.44924477562309 1.5919019033014776, 127.54970225319266 -0.3225361369550228 M0.9661112297326326 -0.8448295760899782 C33.977558301761746 1.9378286813944579, 71.33695344813168 -0.10760954864323136, 126.49609981663525 1.2342488002032042 M124.1280036829412 -1.1342207454144955 C130.3157235402055 8.203478585090489, 126.87347912969068 14.480482267402113, 124.3062753342092 27.216657612472773 M129.09143243916333 0.5352708529680967 C126.54528060933575 6.5427247543819265, 127.8228708245419 17.06670201700181, 129.71369283087552 32.666639192029834 M130.82345005497336 33.757603619247675 C100.50549848303199 33.605917196422816, 70.46436804756522 28.953784089237452, 2.9047635458409786 30.841121289879084 M128.39989154227078 30.16463695280254 C80.93984072096646 31.02154062025249, 34.53440301306546 31.410111942216755, 1.7617015708237886 30.09652523510158 M1.5336631201207638 30.45247134938836 C2.833433300536126 21.69192515918985, 2.063651353400201 13.67463839892298, -1.419115338474512 1.8834964968264103 M-0.024221910163760185 29.784174485132098 C-1.6428630269132554 24.756879812758417, -1.8368189848028122 14.357802837528288, 1.1951187122613192 1.5753595661371946" style="stroke: rgb(0, 0, 0); stroke-width: 4; fill: none;"></path></g><g transform="translate(1117.9802956563408 414.69122284112166) rotate(90 64 15.5)"><path d="M-0.7672451995313168 -3.693026576191187 C41.96911722198129 1.180871383994818, 92.02149297967554 -2.3618178202211855, 130.7609631754458 2.453441943973303 M-0.15656919963657856 -1.7518356572836637 C33.448435373231774 0.26118838198482974, 64.07887444011868 1.357525163963437, 128.7367811035365 1.1606488097459078 M129.02706787362695 1.593327846378088 C127.62090137867256 10.798830565903337, 126.08053127197547 27.495387820340696, 125.1411870457232 33.23988410457969 M126.23694561235607 -0.39834596030414104 C126.99960480699316 10.450665232073517, 126.93159882793204 22.154399401135745, 129.63894574157894 32.5498917568475 M128.28433642163873 28.203408923000097 C94.87215550914406 29.051744706481692, 66.62681801095604 29.234496481269595, -2.0023279450833797 32.627762880176306 M128.53481642715633 31.12375526316464 C98.61594345085322 29.047758883312344, 65.93576180450617 29.761294609382748, -0.6324755121022463 32.7745553124696 M0.1418895460665226 32.15027817711234 C-2.9394336724095047 25.084986723866315, -2.4365680002979935 10.296638477407395, -1.5908464454114437 0.2512335442006588 M1.1986521314829588 31.137038813903928 C-0.467293130401522 23.531536777038127, -1.4167192449606956 13.030391505919397, 1.507173104211688 0.7529134023934603" style="stroke: rgb(0, 0, 0); stroke-width: 4; fill: none;"></path></g><g><g transform="translate(1092.9802956563408 576.1912228411217) rotate(0 86.83993604127318 0.23642492815110927)"><path d="M0.5978976782411336 -1.2811736222356558 C29.493835538253187 -0.5980663136889537, 144.99519020480415 2.6263761007537445, 174.26808106265963 2.940975642576814 M-0.5882089801132677 -2.3956790475547316 C27.598149886578323 -2.600158311178287, 143.98189652487636 -2.3395143600801633, 172.9366954855621 -2.1322164325416093" style="stroke: rgb(0, 0, 0); stroke-width: 4; fill: none;"></path></g></g><g><g transform="translate(1091.4802956563408 599.6912228411217) rotate(0 89.41057472530747 2.6125653195008454)"><path d="M-2.1036299411207438 0.4791121605783699 C26.87564761005342 0.4524515553067127, 146.4238470133394 2.2525142395248015, 176.22310327850283 2.6183566097170115 M1.260679064244032 2.719110123664141 C31.39284573122859 3.1629588019351167, 152.0518972401321 4.505011749615272, 180.9247793917358 4.746018478423357" style="stroke: rgb(0, 0, 0); stroke-width: 4; fill: none;"></path></g></g><g><g transform="translate(1085.4802956563408 627.6912228411217) rotate(0 90.87026495758448 1.595393636694837)"><path d="M1.8936220940202473 -1.7678995486348865 C31.642323575044674 -1.9987090186526375, 147.65814840557675 1.0816855950901907, 177.1208878453821 1.1771844390779735 M3.435546141117811 1.08777789786458 C32.980839639157054 1.696888416955868, 151.21970743224026 5.550795002331336, 179.84690782114865 4.887434665709733" style="stroke: rgb(0, 0, 0); stroke-width: 4; fill: none;"></path></g></g><g><g transform="translate(1092.4802956563408 653.6912228411217) rotate(0 87.77249164815998 0.818052708543803)"><path d="M-2.0086063262075182 0.9640276368707417 C27.458974401528643 1.4200028554846842, 145.39828167396288 2.1213505284239846, 175.57805938757957 1.7046978529542685 M-0.4096749334037306 1.5412896685302258 C29.046233884841204 1.7025218364099661, 148.30228056624532 0.358546561052402, 177.55358962252737 -0.195330981761217" style="stroke: rgb(0, 0, 0); stroke-width: 4; fill: none;"></path></g></g><g><g transform="translate(1086.4802956563408 679.6912228411217) rotate(0 90.84543042417613 -0.44046440099333495)"><path d="M1.8007418755441904 0.41107439361512643 C31.757882539803784 0.41474553508063144, 149.62905118105311 -0.8037727180868386, 179.17205419577658 -0.5719156686216591 M3.942395188361406 -1.2818626065552237 C33.97503130152822 -1.4373772648473582, 150.40485605910422 -0.29983764762679765, 179.89011897280812 -0.14706357911229162" style="stroke: rgb(0, 0, 0); stroke-width: 4; fill: none;"></path></g></g><g><g transform="translate(1094.4802956563408 702.6912228411217) rotate(0 87.89924285218115 1.2554405045136718)"><path d="M-2.3660790387541053 -1.0012796994298696 C27.659778763478002 -1.0193081534157196, 147.61246450506152 0.4074571573485931, 177.82762882076204 1.0708070043474436 M-2.631072234660387 3.512160708457232 C27.00679481074214 2.978976000497739, 149.0552625183761 0.5103578666349251, 178.42955793902277 -0.4887254314124587" style="stroke: rgb(0, 0, 0); stroke-width: 4; fill: none;"></path></g></g><g transform="translate(117.9802956563409 776.1912228411217) rotate(0 118 25.5)"><path d="M3.120602335780859 2.5953504778444767 L236.16291603073478 0.11971959844231606 L238.9847364090383 47.211200688034296 L-1.1315878964960575 52.12064823880792" style="stroke: none; stroke-width: 0; fill: rgb(134, 142, 150);"></path><path d="M2.0539876631317537 -1.925880967097823 C73.71060930898363 1.3604153493295448, 153.9039902249939 -1.0141828043656091, 237.5544826301796 -3.057409801083676 M-1.2665260366031728 -0.16006007175753487 C84.336967782163 4.832651827849528, 164.26763029047154 2.9319296376991955, 236.26234076351435 0.07533640088228806 M234.41862699761987 1.5438021086156368 C236.18046842699871 19.15111498059705, 238.7356946337782 37.34762691874057, 235.2101601101458 52.63867684826255 M237.82853863947093 1.3886659014970064 C235.61540061147883 9.081852407660335, 235.50289237411693 21.123658374883235, 236.27671949379146 52.52668480761349 M233.07562255095897 50.24003253994649 C180.43792808881577 55.32036149758704, 129.57068826938954 51.549520901188636, -2.09455714123698 50.0449009497259 M237.23958605923312 51.01273404255097 C160.50967705347713 50.33673248988658, 86.01640745489046 51.906224698163065, -0.2514969824874244 50.224036749533745 M1.8040480352938175 54.202711667865515 C-2.355461868997663 37.42947605280205, -1.2599295709095895 26.437578175775702, -0.7600630782544613 -1.0048504211008549 M-0.9405135083943605 51.47243629582226 C1.9902695484273136 37.58732000226155, 1.5524935193173588 23.847331958822906, 1.582645220682025 -0.13255245797336102" style="stroke: rgb(0, 0, 0); stroke-width: 4; fill: none;"></path></g><g transform="translate(919.9802956563409 773.6912228411217) rotate(0 118 25.5)"><path d="M-2.212471876293421 1.7700594402849674 L238.53924199566245 3.7503726221621037 L238.23684438690543 49.71540031209588 L-0.9115348197519779 50.3027157522738" style="stroke: none; stroke-width: 0; fill: rgb(134, 142, 150);"></path><path d="M2.6478910615421216 -0.08379390022575109 C63.668846500773974 -3.748230283395568, 127.379280501131 -1.8302488684521114, 235.10998624071613 -2.4694095923582715 M-0.45985903125322675 0.8507199754868946 C77.38061536168134 2.2218271481992766, 152.293897513128 4.721258478282861, 235.14576431027436 0.9569876533597192 M234.37226662412286 3.68221303448081 C235.91263281887396 13.863991208095106, 237.79062437599524 33.102131533809015, 239.5188145376742 51.69654807075858 M237.52262393943965 -1.4198193084448576 C236.11215221853928 15.381417755689474, 237.2765242454596 26.900231800414627, 234.38933621160686 50.64827047474682 M236.80270360348004 52.206385985276206 C145.63697692161713 49.07356516484579, 57.64572078281301 50.92764786081647, 0.5457810756563588 48.24443740810035 M237.64297851470056 49.32401911128435 C187.18501156376635 50.613643053366324, 136.56123060928368 51.85343780204274, 0.597935254673282 52.590966333998175 M-3.8156689666211605 48.84331222996116 C-0.8405839387141167 32.67317993966863, 0.22981331909075386 11.993735973350702, 3.6815335489809513 -0.6940571404993534 M-0.8892542887479067 49.806227849796414 C-0.9507722817547619 36.0618511670269, 1.6189227737300098 17.022966503910716, 1.3692083191126585 1.054771887138486" style="stroke: rgb(0, 0, 0); stroke-width: 4; fill: none;"></path></g></svg>